<svg width="42" height="43" viewBox="0 0 42 43" fill="none" xmlns="http://www.w3.org/2000/svg">
<mask id="mask0_682_7721" style="mask-type:alpha" maskUnits="userSpaceOnUse" x="0" y="0" width="42" height="43">
<rect y="0.600098" width="42" height="42" fill="#D9D9D9"/>
</mask>
<g mask="url(#mask0_682_7721)">
<path d="M10.5022 40.4126C9.16577 40.4126 8.02929 39.9449 7.09275 39.0095C6.15592 38.0742 5.6875 36.9384 5.6875 35.6023C5.6875 34.2659 6.15548 33.1294 7.09144 32.1928C8.0271 31.256 9.16344 30.7876 10.5004 30.7876C10.8749 30.7876 11.2427 30.8341 11.6038 30.9272C11.9652 31.0205 12.3063 31.1456 12.6271 31.3025L16.0965 26.9848C15.3697 26.1927 14.8683 25.3065 14.5924 24.3262C14.3165 23.3456 14.2603 22.3595 14.4239 21.3678L9.38263 19.6987C8.94279 20.4054 8.36456 20.9718 7.64794 21.398C6.93131 21.8244 6.132 22.0376 5.25 22.0376C3.91329 22.0376 2.77696 21.5699 1.841 20.6345C0.905333 19.6992 0.4375 18.5634 0.4375 17.2273C0.4375 15.8909 0.905187 14.7544 1.84056 13.8178C2.77594 12.881 3.91169 12.4126 5.24781 12.4126C6.58423 12.4126 7.72071 12.8804 8.65725 13.8161C9.59408 14.7521 10.0625 15.8884 10.0625 17.2251C10.0625 17.3283 10.0597 17.4147 10.0542 17.4841C10.0484 17.5538 10.0454 17.6234 10.0454 17.6928L15.0701 19.4397C15.5525 18.5466 16.2151 17.7804 17.0577 17.1411C17.9 16.5018 18.8663 16.0912 19.9566 15.9095V10.5379C18.8304 10.2734 17.9207 9.70403 17.2274 8.82991C16.5341 7.95608 16.1875 6.96047 16.1875 5.8431C16.1875 4.51281 16.6552 3.37939 17.5906 2.44285C18.5259 1.50601 19.6617 1.0376 20.9978 1.0376C22.3342 1.0376 23.4707 1.50543 24.4073 2.4411C25.3441 3.37706 25.8125 4.51339 25.8125 5.8501C25.8125 6.96281 25.4613 7.95608 24.759 8.82991C24.057 9.70403 23.1518 10.2734 22.0434 10.5379V15.9095C23.1337 16.0912 24.0972 16.5018 24.934 17.1411C25.7708 17.7804 26.4361 18.5466 26.9299 19.4397L31.9546 17.6928C31.9432 17.612 31.9375 17.5397 31.9375 17.4758V17.2251C31.9375 15.8884 32.4052 14.7521 33.3406 13.8161C34.2759 12.8804 35.4117 12.4126 36.7478 12.4126C38.0842 12.4126 39.2207 12.8803 40.1572 13.8157C41.0941 14.751 41.5625 15.8868 41.5625 17.2229C41.5625 18.5593 41.0947 19.6958 40.159 20.6323C39.223 21.5692 38.0867 22.0376 36.75 22.0376C35.8715 22.0376 35.0685 21.8244 34.3411 21.398C33.6137 20.9718 33.0391 20.4054 32.6174 19.6987L27.5761 21.3678C27.7397 22.3595 27.6835 23.3411 27.4076 24.3126C27.1317 25.2841 26.6303 26.1692 25.9035 26.9678L29.3729 31.2588C29.6937 31.113 30.0348 30.998 30.3962 30.914C30.7573 30.8297 31.1251 30.7876 31.4996 30.7876C32.8366 30.7876 33.9729 31.2553 34.9086 32.1907C35.8445 33.126 36.3125 34.2618 36.3125 35.5979C36.3125 36.9343 35.8448 38.0708 34.9094 39.0073C33.9741 39.9442 32.8383 40.4126 31.5022 40.4126C30.1658 40.4126 29.0293 39.9448 28.0928 39.0091C27.1559 38.0731 26.6875 36.9368 26.6875 35.6001C26.6875 35.0483 26.7768 34.5171 26.9552 34.0067C27.1335 33.4963 27.3999 33.0279 27.7546 32.6015L24.2848 28.2501C23.2908 28.8425 22.1941 29.1387 20.9948 29.1387C19.7957 29.1387 18.6936 28.8425 17.6886 28.2501L14.2454 32.6015C14.5887 33.0279 14.8524 33.4963 15.0364 34.0067C15.2205 34.5171 15.3125 35.0483 15.3125 35.6001C15.3125 36.9368 14.8448 38.0731 13.9094 39.0091C12.9741 39.9448 11.8383 40.4126 10.5022 40.4126ZM5.25 19.4126C5.85813 19.4126 6.37467 19.2 6.79962 18.7747C7.22487 18.3498 7.4375 17.8332 7.4375 17.2251C7.4375 16.617 7.22487 16.1004 6.79962 15.6755C6.37467 15.2502 5.85813 15.0376 5.25 15.0376C4.64187 15.0376 4.12533 15.2502 3.70038 15.6755C3.27513 16.1004 3.0625 16.617 3.0625 17.2251C3.0625 17.8332 3.27513 18.3498 3.70038 18.7747C4.12533 19.2 4.64187 19.4126 5.25 19.4126ZM10.5 37.7876C11.1081 37.7876 11.6247 37.575 12.0496 37.1497C12.4749 36.7248 12.6875 36.2082 12.6875 35.6001C12.6875 34.992 12.4749 34.4754 12.0496 34.0505C11.6247 33.6252 11.1081 33.4126 10.5 33.4126C9.89188 33.4126 9.37533 33.6252 8.95037 34.0505C8.52513 34.4754 8.3125 34.992 8.3125 35.6001C8.3125 36.2082 8.52513 36.7248 8.95037 37.1497C9.37533 37.575 9.89188 37.7876 10.5 37.7876ZM21 8.0376C21.6081 8.0376 22.1247 7.82497 22.5496 7.39972C22.9749 6.97476 23.1875 6.45822 23.1875 5.8501C23.1875 5.24197 22.9749 4.72543 22.5496 4.30047C22.1247 3.87522 21.6081 3.6626 21 3.6626C20.3919 3.6626 19.8753 3.87522 19.4504 4.30047C19.0251 4.72543 18.8125 5.24197 18.8125 5.8501C18.8125 6.45822 19.0251 6.97476 19.4504 7.39972C19.8753 7.82497 20.3919 8.0376 21 8.0376ZM21 26.5137C22.1241 26.5137 23.0781 26.1215 23.8621 25.3372C24.6464 24.5532 25.0386 23.5992 25.0386 22.4751C25.0386 21.351 24.6464 20.397 23.8621 19.613C23.0781 18.8287 22.1241 18.4365 21 18.4365C19.8759 18.4365 18.9219 18.8287 18.1379 19.613C17.3536 20.397 16.9614 21.351 16.9614 22.4751C16.9614 23.5992 17.3536 24.5532 18.1379 25.3372C18.9219 26.1215 19.8759 26.5137 21 26.5137ZM31.5 37.7876C32.1081 37.7876 32.6247 37.575 33.0496 37.1497C33.4749 36.7248 33.6875 36.2082 33.6875 35.6001C33.6875 34.992 33.4749 34.4754 33.0496 34.0505C32.6247 33.6252 32.1081 33.4126 31.5 33.4126C30.8919 33.4126 30.3753 33.6252 29.9504 34.0505C29.5251 34.4754 29.3125 34.992 29.3125 35.6001C29.3125 36.2082 29.5251 36.7248 29.9504 37.1497C30.3753 37.575 30.8919 37.7876 31.5 37.7876ZM36.75 19.4126C37.3581 19.4126 37.8747 19.2 38.2996 18.7747C38.7249 18.3498 38.9375 17.8332 38.9375 17.2251C38.9375 16.617 38.7249 16.1004 38.2996 15.6755C37.8747 15.2502 37.3581 15.0376 36.75 15.0376C36.1419 15.0376 35.6253 15.2502 35.2004 15.6755C34.7751 16.1004 34.5625 16.617 34.5625 17.2251C34.5625 17.8332 34.7751 18.3498 35.2004 18.7747C35.6253 19.2 36.1419 19.4126 36.75 19.4126Z" fill="url(#paint0_linear_682_7721)"/>
</g>
<defs>
<linearGradient id="paint0_linear_682_7721" x1="21" y1="1.0376" x2="21" y2="40.4126" gradientUnits="userSpaceOnUse">
<stop stop-color="#9980C1"/>
<stop offset="1" stop-color="#9980C1" stop-opacity="0.3"/>
</linearGradient>
</defs>
</svg>
