<svg width="52" height="53" viewBox="0 0 52 53" fill="none" xmlns="http://www.w3.org/2000/svg">
<g clip-path="url(#clip0_1011_10427)">
<path fill-rule="evenodd" clip-rule="evenodd" d="M26.2749 22.7081C24.1371 22.7081 23.9116 22.6045 23.8029 22.5547C21.3857 21.4304 19.4225 19.1503 18.2718 16.135C17.2095 13.3511 16.9454 10.1935 17.5467 7.4737C17.9885 5.478 18.8812 3.79917 20.1284 2.62003C21.6528 1.17785 23.6333 0.498392 25.9967 0.613158C26.1663 0.605033 26.3298 0.60097 26.4943 0.60097C28.6535 0.60097 30.4685 1.28855 31.8883 2.64441C33.1375 3.83777 34.0272 5.53386 34.4599 7.54886C35.0469 10.2829 34.7646 13.4446 33.6849 16.2233C32.5139 19.2377 30.5294 21.5005 28.096 22.5974C27.9812 22.6492 27.8512 22.7081 26.2749 22.7081ZM24.264 21.4243C24.4549 21.4528 25.1618 21.4893 26.2749 21.4893C27.0519 21.4893 27.5079 21.47 27.6613 21.4558C32.3118 19.3068 34.3157 12.6798 33.2675 7.8048C32.451 4.00128 29.982 1.81972 26.4943 1.81972C26.3399 1.81972 26.1866 1.82378 26.0271 1.83191C26.0058 1.83292 25.9855 1.83292 25.9642 1.83191C25.8088 1.82378 25.6514 1.81972 25.498 1.81972C22.0327 1.81972 19.5688 3.97589 18.737 7.73675C17.6635 12.5874 19.6297 19.2275 24.264 21.4243Z" fill="url(#paint0_linear_1011_10427)"/>
<path fill-rule="evenodd" clip-rule="evenodd" d="M33.822 14.2348C33.8129 14.2348 33.8037 14.2348 33.7946 14.2337C33.4584 14.2195 33.1984 13.9352 33.2126 13.599C33.2979 11.653 30.8767 10.1347 30.4816 9.90008C29.1095 9.52328 25.5568 9.80055 24.2833 9.94172C24.0598 9.96711 23.8394 9.86554 23.7125 9.67765C23.0808 8.74734 21.8072 7.54179 21.1673 6.95984C18.6882 9.16984 18.5602 12.0542 18.5602 12.0847C18.5544 12.246 18.485 12.3984 18.3672 12.5088C18.2495 12.6191 18.0929 12.6784 17.9315 12.6737C17.5964 12.6636 17.3323 12.3843 17.3415 12.0481C17.3455 11.8958 17.4847 8.28015 20.8037 5.67508C20.915 5.58779 21.0531 5.54188 21.1945 5.54521C21.3358 5.54855 21.4716 5.60092 21.5786 5.69336C21.6619 5.76547 23.486 7.3468 24.5047 8.69351C25.6696 8.57976 29.336 8.27508 30.9011 8.75344C30.9417 8.76562 30.9803 8.78187 31.0179 8.80219C31.1621 8.88242 34.5553 10.7887 34.4304 13.6518C34.4234 13.8086 34.3563 13.9566 34.243 14.0652C34.1297 14.1738 33.9789 14.2345 33.822 14.2348ZM11.333 49.2403C11.2985 49.2403 11.2629 49.2373 11.2274 49.2312C9.30684 48.896 5.85677 47.4132 6.1838 45.3495L8.65888 29.7687C8.97169 26.1866 14.449 24.5423 18.4505 23.3419C19.3036 23.0849 20.0633 22.8574 20.6341 22.6482V19.907C20.6341 19.5709 20.9073 19.2977 21.2435 19.2977C21.5807 19.2977 21.8529 19.5709 21.8529 19.907V23.0636C21.8529 23.3094 21.7066 23.5298 21.4801 23.6252C20.8311 23.8995 19.8897 24.1818 18.8009 24.5088C15.3336 25.5498 10.095 27.122 9.87153 29.8916C9.87052 29.9069 9.86848 29.9221 9.86544 29.9384L7.38731 45.5404C7.24614 46.4341 9.54856 47.7006 11.4366 48.0307C11.7687 48.0886 11.9901 48.4045 11.9322 48.7355C11.8815 49.0321 11.6235 49.2403 11.333 49.2403ZM40.6775 49.2352C40.387 49.2352 40.13 49.026 40.0783 48.7305C40.0645 48.6516 40.0664 48.5709 40.0838 48.4928C40.1013 48.4147 40.1339 48.3408 40.18 48.2753C40.226 48.2099 40.2845 48.1541 40.3521 48.1113C40.4197 48.0684 40.495 48.0393 40.5739 48.0256C42.4528 47.6976 44.744 46.4331 44.6018 45.5404L42.1237 29.9384C42.1215 29.9228 42.1198 29.9073 42.1186 29.8916C41.8942 27.122 36.6556 25.5498 33.1893 24.5088C32.0995 24.1818 31.159 23.8995 30.509 23.6252C30.3984 23.5788 30.3041 23.5007 30.2377 23.4008C30.1714 23.3008 30.1361 23.1835 30.1363 23.0636V19.907C30.1363 19.5709 30.4095 19.2977 30.7457 19.2977C31.0818 19.2977 31.355 19.5709 31.355 19.907V22.6482C31.9258 22.8574 32.6855 23.0849 33.5397 23.3419C37.5412 24.5423 43.0175 26.1866 43.3313 29.7687L45.8054 45.3495C46.1527 47.533 42.5015 48.9265 40.7831 49.2261C40.7475 49.2322 40.712 49.2352 40.6775 49.2352Z" fill="url(#paint1_linear_1011_10427)"/>
<path fill-rule="evenodd" clip-rule="evenodd" d="M22.5046 29.7078C22.4822 29.7078 22.4609 29.7068 22.4385 29.7047C22.3509 29.695 22.2665 29.6665 22.1909 29.6211C22.1154 29.5757 22.0505 29.5145 22.0008 29.4417L18.4197 24.1787C18.3289 24.0451 18.295 23.8809 18.3253 23.7223C18.3555 23.5636 18.4476 23.4235 18.5812 23.3327C18.6472 23.2876 18.7215 23.2559 18.7998 23.2396C18.8782 23.2232 18.9589 23.2224 19.0375 23.2373C19.1161 23.2523 19.191 23.2825 19.2579 23.3264C19.3247 23.3703 19.3823 23.427 19.4272 23.4932L22.6061 28.1651L24.9634 25.9388L20.9344 23.5511C20.8656 23.5103 20.8055 23.4563 20.7575 23.3922C20.7095 23.3282 20.6747 23.2553 20.6549 23.1778C20.6351 23.1003 20.6307 23.0196 20.6421 22.9404C20.6534 22.8612 20.6803 22.785 20.7211 22.7162C20.7619 22.6474 20.8159 22.5873 20.8799 22.5393C20.944 22.4914 21.0168 22.4565 21.0944 22.4367C21.1719 22.4169 21.2526 22.4125 21.3318 22.4239C21.411 22.4353 21.4871 22.4621 21.556 22.5029L26.2796 25.303C26.4442 25.4005 26.5539 25.5691 26.5752 25.7601C26.5955 25.95 26.5264 26.1389 26.3873 26.2699L22.923 29.5422C22.8095 29.6485 22.66 29.7077 22.5046 29.7078Z" fill="url(#paint2_linear_1011_10427)"/>
<path fill-rule="evenodd" clip-rule="evenodd" d="M29.4049 29.8348C29.2444 29.8348 29.089 29.7708 28.9742 29.656L25.5577 26.2394C25.4916 26.1732 25.4416 26.0928 25.4114 26.0042C25.3813 25.9156 25.3719 25.8213 25.384 25.7286C25.3964 25.636 25.4299 25.5475 25.4818 25.4699C25.5338 25.3922 25.6028 25.3275 25.6836 25.2807L30.4428 22.5334C30.5121 22.4934 30.5886 22.4674 30.6679 22.457C30.7472 22.4465 30.8278 22.4519 30.9051 22.4726C30.9823 22.4934 31.0548 22.5292 31.1182 22.5779C31.1816 22.6267 31.2348 22.6875 31.2746 22.7569C31.4432 23.0483 31.3437 23.4211 31.0522 23.5887L26.9806 25.9388L29.3155 28.2737L32.5685 23.4942C32.6135 23.428 32.671 23.3714 32.7379 23.3275C32.8048 23.2836 32.8797 23.2533 32.9582 23.2384C33.0368 23.2235 33.1176 23.2243 33.1959 23.2406C33.2742 23.257 33.3485 23.2886 33.4146 23.3337C33.5481 23.4245 33.6402 23.5647 33.6705 23.7233C33.7008 23.882 33.6668 24.0461 33.576 24.1798L29.9086 29.5676C29.8071 29.718 29.6435 29.8144 29.4628 29.8317C29.4435 29.8337 29.4242 29.8348 29.4049 29.8348Z" fill="url(#paint3_linear_1011_10427)"/>
<path fill-rule="evenodd" clip-rule="evenodd" d="M28.3922 31.1235H23.6035C23.2673 31.1235 22.9941 30.8503 22.9941 30.5141V28.0614C22.9941 27.7242 23.2673 27.452 23.6035 27.452C23.9397 27.452 24.2129 27.7242 24.2129 28.0614V29.9048H27.7828V28.2127C27.7828 27.8766 28.056 27.6034 28.3922 27.6034C28.7294 27.6034 29.0016 27.8766 29.0016 28.2127V30.5141C29.0016 30.8503 28.7294 31.1235 28.3922 31.1235Z" fill="url(#paint4_linear_1011_10427)"/>
<path fill-rule="evenodd" clip-rule="evenodd" d="M27.1213 33.8028H24.8809C24.5447 33.8028 24.2715 33.5306 24.2715 33.1934V30.5142C24.2715 30.177 24.5447 29.9048 24.8809 29.9048H27.1213C27.4585 29.9048 27.7307 30.177 27.7307 30.5142V33.1934C27.7307 33.5306 27.4585 33.8028 27.1213 33.8028ZM25.4902 32.584H26.512V31.1235H25.4902V32.584Z" fill="url(#paint5_linear_1011_10427)"/>
<path fill-rule="evenodd" clip-rule="evenodd" d="M39.0142 52.5989H12.9878C11.7488 52.5989 10.7402 51.5904 10.7402 50.3513V34.8316C10.7402 33.5925 11.7488 32.584 12.9878 32.584H39.0142C40.2533 32.584 41.2618 33.5925 41.2618 34.8316V50.3513C41.2618 51.5904 40.2533 52.5989 39.0142 52.5989ZM12.9878 33.8027C12.4211 33.8027 11.959 34.2648 11.959 34.8316V50.3513C11.959 50.9191 12.4201 51.3802 12.9878 51.3802H39.0142C39.582 51.3802 40.043 50.9191 40.043 50.3513V34.8316C40.043 34.2648 39.582 33.8027 39.0142 33.8027H12.9878Z" fill="url(#paint6_linear_1011_10427)"/>
<path fill-rule="evenodd" clip-rule="evenodd" d="M26.0006 45.7546C23.8048 45.7546 22.0173 43.9681 22.0173 41.7723C22.0173 39.5755 23.8048 37.7891 26.0006 37.7891C28.1964 37.7891 29.9839 39.5755 29.9839 41.7723C29.9839 43.9681 28.1964 45.7546 26.0006 45.7546ZM26.0006 39.0078C24.4762 39.0078 23.2361 40.2479 23.2361 41.7723C23.2361 43.2968 24.4762 44.5369 26.0006 44.5369C27.5251 44.5369 28.7652 43.2968 28.7652 41.7723C28.7652 40.2479 27.5251 39.0078 26.0006 39.0078ZM46.0501 52.5989H5.95117C5.615 52.5989 5.3418 52.3257 5.3418 51.9895C5.3418 51.6534 5.615 51.3802 5.95117 51.3802H46.0501C46.3862 51.3802 46.6595 51.6534 46.6595 51.9895C46.6595 52.3257 46.3862 52.5989 46.0501 52.5989Z" fill="url(#paint7_linear_1011_10427)"/>
</g>
<defs>
<linearGradient id="paint0_linear_1011_10427" x1="26.8435" y1="-5.35179" x2="26.8435" y2="26.7475" gradientUnits="userSpaceOnUse">
<stop stop-color="#9980C1"/>
<stop offset="1" stop-color="#9980C1" stop-opacity="0"/>
</linearGradient>
<linearGradient id="paint1_linear_1011_10427" x1="27.9148" y1="-6.22008" x2="27.9148" y2="57.2243" gradientUnits="userSpaceOnUse">
<stop stop-color="#9980C1"/>
<stop offset="1" stop-color="#9980C1" stop-opacity="0"/>
</linearGradient>
<linearGradient id="paint2_linear_1011_10427" x1="22.8465" y1="20.4548" x2="22.8465" y2="31.0398" gradientUnits="userSpaceOnUse">
<stop stop-color="#9980C1"/>
<stop offset="1" stop-color="#9980C1" stop-opacity="0"/>
</linearGradient>
<linearGradient id="paint3_linear_1011_10427" x1="29.9319" y1="20.4639" x2="29.9319" y2="31.1838" gradientUnits="userSpaceOnUse">
<stop stop-color="#9980C1"/>
<stop offset="1" stop-color="#9980C1" stop-opacity="0"/>
</linearGradient>
<linearGradient id="paint4_linear_1011_10427" x1="26.2886" y1="26.4635" x2="26.2886" y2="31.7944" gradientUnits="userSpaceOnUse">
<stop stop-color="#9980C1"/>
<stop offset="1" stop-color="#9980C1" stop-opacity="0"/>
</linearGradient>
<linearGradient id="paint5_linear_1011_10427" x1="26.1685" y1="28.8552" x2="26.1685" y2="34.515" gradientUnits="userSpaceOnUse">
<stop stop-color="#9980C1"/>
<stop offset="1" stop-color="#9980C1" stop-opacity="0"/>
</linearGradient>
<linearGradient id="paint6_linear_1011_10427" x1="27.478" y1="27.1949" x2="27.478" y2="56.256" gradientUnits="userSpaceOnUse">
<stop stop-color="#9980C1"/>
<stop offset="1" stop-color="#9980C1" stop-opacity="0"/>
</linearGradient>
<linearGradient id="paint7_linear_1011_10427" x1="28" y1="33.8015" x2="28" y2="55.3049" gradientUnits="userSpaceOnUse">
<stop stop-color="#9980C1"/>
<stop offset="1" stop-color="#9980C1" stop-opacity="0"/>
</linearGradient>
<clipPath id="clip0_1011_10427">
<rect width="52" height="52" fill="white" transform="translate(0 0.599976)"/>
</clipPath>
</defs>
</svg>
