<svg width="42" height="43" viewBox="0 0 42 43" fill="none" xmlns="http://www.w3.org/2000/svg">
<path d="M11.5471 6.16799C11.5482 7.31036 11.2103 8.42738 10.5764 9.37769C9.94238 10.328 9.04073 11.0689 7.98553 11.5065C6.93033 11.9442 5.76901 12.059 4.64854 11.8364C3.52806 11.6138 2.49881 11.0638 1.69103 10.2561C0.883253 9.44828 0.333264 8.41902 0.110668 7.29855C-0.111927 6.17808 0.00287669 5.01675 0.440551 3.96155C0.878225 2.90635 1.6191 2.0047 2.5694 1.37072C3.5197 0.736744 4.63672 0.398927 5.77909 0.400027C7.3084 0.4015 8.77465 1.00967 9.85603 2.09105C10.9374 3.17244 11.5456 4.63868 11.5471 6.16799Z" fill="white"/>
<path d="M8.81586 14.3444H2.74198C1.9525 14.3444 1.3125 14.9844 1.3125 15.7738V41.243C1.3125 42.0325 1.9525 42.6725 2.74198 42.6725H8.81586C9.60534 42.6725 10.2453 42.0325 10.2453 41.243V15.7738C10.2453 14.9844 9.60534 14.3444 8.81586 14.3444Z" fill="white"/>
<path d="M41.9986 29.0285V41.3598C41.9986 41.708 41.8603 42.0419 41.6141 42.288C41.3679 42.5342 41.0341 42.6725 40.6859 42.6725H34.1671C33.8189 42.6725 33.485 42.5342 33.2389 42.288C32.9927 42.0419 32.8544 41.708 32.8544 41.3598V29.4123C32.8544 27.6269 33.3717 21.6253 28.1933 21.6253C24.1774 21.6253 23.3598 25.7524 23.1874 27.6046V41.3877C23.1801 41.729 23.0402 42.0542 22.7972 42.2941C22.5542 42.5339 22.2272 42.6697 21.8858 42.6725H15.5783C15.4057 42.6733 15.2347 42.6398 15.0751 42.5741C14.9155 42.5084 14.7705 42.4117 14.6485 42.2897C14.5264 42.1676 14.4298 42.0226 14.3641 41.8631C14.2984 41.7035 14.2649 41.5324 14.2656 41.3598V15.6626C14.2649 15.4898 14.2983 15.3185 14.364 15.1586C14.4296 14.9987 14.5262 14.8533 14.6481 14.7308C14.7701 14.6084 14.9151 14.5112 15.0747 14.4449C15.2343 14.3785 15.4055 14.3444 15.5783 14.3444H21.8858C22.0608 14.3415 22.2346 14.3734 22.3971 14.4383C22.5596 14.5032 22.7076 14.5999 22.8324 14.7226C22.9571 14.8453 23.0562 14.9916 23.1239 15.153C23.1915 15.3144 23.2263 15.4876 23.2263 15.6626V17.8875C24.7169 15.6626 26.9307 13.9272 31.6418 13.9272C42.0598 13.9217 41.9986 23.6722 41.9986 29.0285Z" fill="white"/>
</svg>
