<svg width="42" height="43" viewBox="0 0 42 43" fill="none" xmlns="http://www.w3.org/2000/svg">
<mask id="mask0_682_7690" style="mask-type:alpha" maskUnits="userSpaceOnUse" x="0" y="0" width="42" height="43">
<rect y="0.600098" width="42" height="42" fill="#D9D9D9"/>
</mask>
<g mask="url(#mask0_682_7690)">
<path d="M21 38.2251C18.7025 38.2251 16.5426 37.7882 14.5202 36.9143C12.4975 36.0405 10.7379 34.8553 9.24131 33.3588C7.74477 31.8622 6.55958 30.1026 5.68575 28.0799C4.81192 26.0575 4.375 23.8976 4.375 21.6001C4.375 19.3026 4.81192 17.1427 5.68575 15.1203C6.55958 13.0976 7.74477 11.338 9.24131 9.84141C10.7379 8.34487 12.4975 7.15968 14.5202 6.28585C16.5426 5.41202 18.7025 4.9751 21 4.9751C21.5924 4.9751 22.1729 5.0031 22.7417 5.0591C23.3104 5.11539 23.8763 5.21645 24.4392 5.36228L23.7528 7.88272C23.3018 7.77743 22.8655 7.70116 22.4438 7.65391C22.022 7.60695 21.5857 7.58347 21.1348 7.58347C20.1632 8.68276 19.3605 9.87802 18.7268 11.1692C18.093 12.4604 17.5841 13.7948 17.2003 15.1723H24.0288V17.7973H16.6517C16.542 18.4253 16.4624 19.0563 16.4128 19.6904C16.3635 20.3242 16.3389 20.9608 16.3389 21.6001C16.3389 22.2394 16.3635 22.876 16.4128 23.5098C16.4624 24.1439 16.542 24.7749 16.6517 25.4028H25.3483C25.458 24.7749 25.5376 24.1551 25.5872 23.5435C25.6365 22.9321 25.6611 22.374 25.6611 21.8692H28.2861C28.2861 22.374 28.2615 22.9321 28.2122 23.5435C28.1626 24.1551 28.0828 24.7749 27.9729 25.4028H34.4785C34.6579 24.7749 34.7897 24.1551 34.874 23.5435C34.958 22.9321 35 22.374 35 21.8692H37.625C37.625 24.0546 37.1881 26.139 36.3142 28.1223C35.4404 30.1057 34.2552 31.8427 32.7587 33.3334C31.2621 34.8244 29.5025 36.0124 27.4798 36.8973C25.4574 37.7825 23.2975 38.2251 21 38.2251ZM7.5215 25.4028H14.0271C13.9172 24.7749 13.8374 24.1439 13.7878 23.5098C13.7385 22.876 13.7139 22.2394 13.7139 21.6001C13.7139 20.9608 13.7385 20.3242 13.7878 19.6904C13.8374 19.0563 13.9172 18.4253 14.0271 17.7973H7.5215C7.34212 18.4253 7.21029 19.0563 7.126 19.6904C7.042 20.3242 7 20.9608 7 21.6001C7 22.2394 7.042 22.876 7.126 23.5098C7.21029 24.1439 7.34212 24.7749 7.5215 25.4028ZM17.5573 35.1153C16.8372 34.1237 16.2314 33.0299 15.7399 31.8341C15.2485 30.6383 14.8368 29.3695 14.5049 28.0278H8.59513C9.50833 29.8228 10.744 31.3351 12.3021 32.5647C13.8604 33.7941 15.6122 34.6443 17.5573 35.1153ZM8.62225 15.1723H14.5049C14.8593 13.8598 15.2849 12.6012 15.7819 11.3963C16.2789 10.1914 16.8707 9.0876 17.5573 8.08485C15.6055 8.5311 13.8566 9.37358 12.3108 10.6123C10.7647 11.8507 9.53517 13.3707 8.62225 15.1723ZM21 35.5091C21.8592 34.3873 22.6052 33.2045 23.2378 31.9605C23.8707 30.7163 24.3914 29.4054 24.7997 28.0278H17.2003C17.6086 29.4054 18.1264 30.7218 18.7534 31.9772C19.3805 33.2325 20.1294 34.4098 21 35.5091ZM24.4427 35.1153C26.4059 34.6735 28.162 33.8306 29.7111 32.5866C31.2604 31.3423 32.4917 29.8228 33.4049 28.0278H27.4951C27.1069 29.3293 26.6728 30.5852 26.1927 31.7956C25.7126 33.006 25.1293 34.1126 24.4427 35.1153ZM29.05 18.3692C28.6417 18.3692 28.286 18.2178 27.9829 17.915C27.6802 17.6123 27.5288 17.2567 27.5288 16.8484V11.5446C27.5288 11.1363 27.6802 10.7806 27.9829 10.4775C28.286 10.1748 28.6417 10.0234 29.05 10.0234H29.2954V8.27341C29.2954 7.35554 29.6158 6.57635 30.2566 5.93585C30.8971 5.29535 31.6762 4.9751 32.5938 4.9751C33.5113 4.9751 34.2904 5.29535 34.9309 5.93585C35.5714 6.57635 35.8916 7.35554 35.8916 8.27341V10.0234H36.1375C36.5458 10.0234 36.8958 10.1748 37.1875 10.4775C37.4792 10.7806 37.625 11.1363 37.625 11.5446V16.8484C37.625 17.2567 37.4735 17.6123 37.1704 17.915C36.8677 18.2178 36.5121 18.3692 36.1038 18.3692H29.05ZM30.8438 10.0234H34.3438V8.27341C34.3438 7.77758 34.176 7.36195 33.8406 7.02654C33.5052 6.69112 33.0896 6.52341 32.5938 6.52341C32.0979 6.52341 31.6823 6.69112 31.3469 7.02654C31.0115 7.36195 30.8438 7.77758 30.8438 8.27341V10.0234Z" fill="url(#paint0_linear_682_7690)"/>
</g>
<defs>
<linearGradient id="paint0_linear_682_7690" x1="21" y1="4.9751" x2="21" y2="38.2251" gradientUnits="userSpaceOnUse">
<stop stop-color="#9980C1"/>
<stop offset="1" stop-color="#9980C1" stop-opacity="0.3"/>
</linearGradient>
</defs>
</svg>
