<svg width="36" height="36" viewBox="0 0 36 36" fill="none" xmlns="http://www.w3.org/2000/svg">
<path d="M27.2109 16.7479L32.2734 13.8251C32.5083 13.689 32.7034 13.4936 32.8391 13.2585C32.9748 13.0233 33.0465 12.7567 33.0469 12.4852V6.63973C33.0469 6.08848 32.7504 5.57548 32.2734 5.29985L27.2109 2.3771C26.9756 2.24199 26.7089 2.1709 26.4375 2.1709C26.1661 2.1709 25.8994 2.24199 25.6641 2.3771L20.6016 5.29985C20.3667 5.43599 20.1716 5.63138 20.0359 5.8665C19.9002 6.10162 19.8285 6.36824 19.8281 6.63973V12.4852C19.8281 13.0365 20.1246 13.5495 20.6016 13.8251L25.6641 16.7479C25.7754 16.8125 25.8947 16.8587 26.0156 16.8924V19.1075C25.8929 19.1409 25.7748 19.1895 25.6641 19.2521L20.6016 22.1749C20.3667 22.311 20.1716 22.5064 20.0359 22.7415C19.9002 22.9766 19.8285 23.2432 19.8281 23.5147V29.3602C19.8281 29.9115 20.1246 30.4245 20.6016 30.7001L25.6641 33.6229C25.8993 33.7583 26.166 33.8297 26.4375 33.8297C26.709 33.8297 26.9757 33.7583 27.2109 33.6229L32.2734 30.7001C32.5083 30.564 32.7034 30.3686 32.8391 30.1335C32.9748 29.8983 33.0465 29.6317 33.0469 29.3602V23.5147C33.0469 22.9635 32.7504 22.4505 32.2734 22.1749L27.2109 19.2521C27.1002 19.1895 26.9821 19.141 26.8594 19.1075V16.8919C26.9809 16.8581 27.0996 16.812 27.2109 16.7479ZM31.8516 13.0944L26.8807 15.9637V9.92585C26.8807 9.92023 26.8779 9.91516 26.8774 9.90954C26.8943 9.9011 26.9134 9.89829 26.9297 9.88816L32.2031 6.84391V12.4858C32.2031 12.7361 32.0681 12.9695 31.8516 13.0944ZM26.0859 3.10779C26.1928 3.04608 26.3141 3.01359 26.4375 3.01359C26.5609 3.01359 26.6822 3.04608 26.7891 3.10779L31.8516 6.03054C31.8628 6.03729 31.8718 6.04741 31.8831 6.05473L26.5078 9.15748C26.4864 9.1696 26.4621 9.17598 26.4375 9.17598C26.4129 9.17598 26.3886 9.1696 26.3672 9.15748L20.9919 6.05473C21.0032 6.04741 21.0116 6.03785 21.0234 6.03054L26.0859 3.10779ZM21.0234 13.0944C20.9166 13.0325 20.8279 12.9437 20.7662 12.8368C20.7045 12.7299 20.672 12.6087 20.6719 12.4852V6.84391L25.9453 9.88816C25.9746 9.90504 26.0072 9.91235 26.037 9.92585V15.989L21.0234 13.0944ZM21.0234 29.9694C20.9166 29.9075 20.8279 29.8187 20.7662 29.7118C20.7045 29.6049 20.672 29.4837 20.6719 29.3602V23.7189L25.9453 26.7632C25.9746 26.78 26.0072 26.7874 26.037 26.8009V32.864L21.0234 29.9694ZM31.8516 29.9694L26.8807 32.8387V26.7834C26.8965 26.7755 26.9145 26.7722 26.9297 26.7632L32.2031 23.7189V29.3608C32.2031 29.6111 32.0681 29.8445 31.8516 29.9694ZM31.8516 22.9055C31.8628 22.9123 31.8718 22.9224 31.8831 22.9297L26.5078 26.0325C26.4864 26.0446 26.4621 26.051 26.4375 26.051C26.4129 26.051 26.3886 26.0446 26.3672 26.0325L20.9919 22.9297C21.0032 22.9224 21.0116 22.9129 21.0234 22.9055L26.0156 20.0239V23.0625C26.0156 23.1744 26.0601 23.2817 26.1392 23.3608C26.2183 23.4399 26.3256 23.4844 26.4375 23.4844C26.5494 23.4844 26.6567 23.4399 26.7358 23.3608C26.8149 23.2817 26.8594 23.1744 26.8594 23.0625V20.0233L31.8516 22.9055ZM9.5625 3.5156C5.91806 3.5156 2.95312 6.48054 2.95312 10.125V15.1875C2.95312 16.0408 3.64669 16.7344 4.5 16.7344C5.35331 16.7344 6.04688 16.0408 6.04688 15.1875V10.125C6.04688 8.1866 7.62413 6.60935 9.5625 6.60935C11.5009 6.60935 13.0781 8.1866 13.0781 10.125V15.1875C13.0781 16.0408 13.7717 16.7344 14.625 16.7344C15.4783 16.7344 16.1719 16.0408 16.1719 15.1875V10.125C16.1719 6.48054 13.2069 3.5156 9.5625 3.5156ZM15.3281 15.1875C15.3209 15.3691 15.2436 15.5408 15.1125 15.6668C14.9815 15.7927 14.8068 15.863 14.625 15.863C14.4432 15.863 14.2685 15.7927 14.1375 15.6668C14.0064 15.5408 13.9291 15.3691 13.9219 15.1875V10.125C13.9219 7.72141 11.9661 5.7656 9.5625 5.7656C7.15894 5.7656 5.20312 7.72141 5.20312 10.125V15.1875C5.19586 15.3691 5.1186 15.5408 4.98753 15.6668C4.85647 15.7927 4.68176 15.863 4.5 15.863C4.31824 15.863 4.14353 15.7927 4.01246 15.6668C3.8814 15.5408 3.80414 15.3691 3.79688 15.1875V10.125C3.79688 6.94573 6.38325 4.35935 9.5625 4.35935C12.7417 4.35935 15.3281 6.94573 15.3281 10.125V15.1875ZM14.625 19.2656C14.2149 19.266 13.8217 19.4292 13.5317 19.7192C13.2417 20.0092 13.0786 20.4024 13.0781 20.8125V25.875C13.0781 27.8134 11.5009 29.3906 9.5625 29.3906C7.62413 29.3906 6.04688 27.8134 6.04688 25.875V20.8125C6.04688 19.9592 5.35331 19.2656 4.5 19.2656C3.64669 19.2656 2.95312 19.9592 2.95312 20.8125V25.875C2.95312 29.5194 5.91806 32.4844 9.5625 32.4844C13.2069 32.4844 16.1719 29.5194 16.1719 25.875V20.8125C16.1714 20.4024 16.0083 20.0092 15.7183 19.7192C15.4283 19.4292 15.0351 19.266 14.625 19.2656ZM15.3281 25.875C15.3281 29.0542 12.7417 31.6406 9.5625 31.6406C6.38325 31.6406 3.79688 29.0542 3.79688 25.875V20.8125C3.80414 20.6309 3.8814 20.4591 4.01246 20.3332C4.14353 20.2072 4.31824 20.1369 4.5 20.1369C4.68176 20.1369 4.85647 20.2072 4.98753 20.3332C5.1186 20.4591 5.19586 20.6309 5.20312 20.8125V25.875C5.20312 28.2785 7.15894 30.2344 9.5625 30.2344C11.9661 30.2344 13.9219 28.2785 13.9219 25.875V20.8125C13.9291 20.6309 14.0064 20.4591 14.1375 20.3332C14.2685 20.2072 14.4432 20.1369 14.625 20.1369C14.8068 20.1369 14.9815 20.2072 15.1125 20.3332C15.2436 20.4591 15.3209 20.6309 15.3281 20.8125V25.875ZM11.1094 21.9375V14.0625C11.1094 13.2092 10.4158 12.5156 9.5625 12.5156C8.70919 12.5156 8.01562 13.2092 8.01562 14.0625V21.9375C8.01562 22.7908 8.70919 23.4844 9.5625 23.4844C10.4158 23.4844 11.1094 22.7908 11.1094 21.9375ZM8.85938 21.9375V14.0625C8.86664 13.8809 8.9439 13.7091 9.07496 13.5832C9.20603 13.4572 9.38074 13.3869 9.5625 13.3869C9.74426 13.3869 9.91897 13.4572 10.05 13.5832C10.1811 13.7091 10.2584 13.8809 10.2656 14.0625V21.9375C10.2584 22.1191 10.1811 22.2908 10.05 22.4168C9.91897 22.5427 9.74426 22.613 9.5625 22.613C9.38074 22.613 9.20603 22.5427 9.07496 22.4168C8.9439 22.2908 8.86664 22.1191 8.85938 21.9375Z" fill="#9980C1"/>
</svg>
