<svg width="36" height="36" viewBox="0 0 36 36" fill="none" xmlns="http://www.w3.org/2000/svg">
<g clip-path="url(#clip0_1020_8237)">
<path d="M3.78724 18.3889C4.4813 14.1643 7.0058 10.492 10.7136 8.31373C10.8422 8.23908 10.9951 8.21838 11.1389 8.25614C11.2827 8.2939 11.4057 8.38706 11.481 8.51525C11.5563 8.64344 11.5778 8.79623 11.5408 8.94022C11.5038 9.08422 11.4113 9.20771 11.2835 9.28369C7.86473 11.2922 5.53711 14.6774 4.89741 18.5713C4.87317 18.7185 4.79147 18.8501 4.67027 18.9371C4.54908 19.024 4.3983 19.0593 4.25109 19.0352C4.1039 19.011 3.97236 18.9293 3.88538 18.8081C3.7984 18.6869 3.7631 18.5361 3.78724 18.3889ZM24.7165 9.28355C28.1352 11.2922 30.4628 14.6774 31.1025 18.5713C31.1268 18.7185 31.2085 18.85 31.3297 18.937C31.4509 19.024 31.6016 19.0593 31.7488 19.0351C31.896 19.0109 32.0276 18.9293 32.1146 18.8081C32.2016 18.6869 32.2369 18.5361 32.2128 18.3889C31.5186 14.1643 28.9941 10.492 25.2864 8.31359C25.0185 8.15616 24.6739 8.24573 24.5165 8.51363C24.4409 8.64224 24.4195 8.79561 24.457 8.94C24.4945 9.08439 24.5879 9.20796 24.7165 9.28355ZM22.77 33.137C21.2493 33.7227 19.6445 34.0196 18 34.0196C16.3555 34.0196 14.7506 33.7226 13.23 33.137C13.1611 33.1104 13.0876 33.0977 13.0137 33.0996C12.9399 33.1014 12.8671 33.1178 12.7996 33.1477C12.7321 33.1777 12.6712 33.2207 12.6203 33.2742C12.5694 33.3278 12.5295 33.3908 12.503 33.4597C12.4764 33.5287 12.4637 33.6021 12.4656 33.676C12.4674 33.7498 12.4838 33.8226 12.5137 33.8901C12.5437 33.9576 12.5867 34.0186 12.6402 34.0695C12.6937 34.1204 12.7568 34.1603 12.8257 34.1868C14.4758 34.8224 16.2167 35.1447 18 35.1447C19.7832 35.1447 21.5241 34.8225 23.1743 34.1868C23.313 34.1329 23.4247 34.0261 23.4849 33.89C23.5451 33.7538 23.5489 33.5993 23.4954 33.4604C23.4419 33.3215 23.3355 33.2095 23.1995 33.1488C23.0635 33.0882 22.9091 33.0839 22.77 33.137ZM24.0127 12.3794C24.0127 12.5286 23.9534 12.6717 23.848 12.7772C23.7425 12.8826 23.5994 12.9419 23.4502 12.9419H12.5498C12.4006 12.9419 12.2575 12.8826 12.152 12.7772C12.0466 12.6717 11.9873 12.5286 11.9873 12.3794C11.9873 9.8007 13.6194 7.59654 15.9046 6.74407C15.159 6.13509 14.6819 5.20915 14.6819 4.17359C14.6819 2.34398 16.1704 0.855469 18 0.855469C19.8296 0.855469 21.3181 2.34398 21.3181 4.17359C21.3181 5.20915 20.841 6.13509 20.0954 6.74407C22.3806 7.59654 24.0127 9.8007 24.0127 12.3794ZM15.807 4.17352C15.807 5.38282 16.7908 6.36663 18.0001 6.36663C19.2094 6.36663 20.1932 5.38282 20.1932 4.17352C20.1932 2.96421 19.2094 1.98047 18.0001 1.98047C16.7908 1.98047 15.807 2.96428 15.807 4.17352ZM22.8556 11.8169C22.5758 9.38571 20.505 7.4917 18 7.4917C15.495 7.4917 13.4243 9.38571 13.1444 11.8169H22.8556ZM36 31.2733C36 31.4225 35.9407 31.5655 35.8352 31.671C35.7298 31.7765 35.5867 31.8358 35.4375 31.8358H24.5371C24.3879 31.8358 24.2448 31.7765 24.1393 31.671C24.0339 31.5655 23.9746 31.4225 23.9746 31.2733C23.9746 28.6946 25.6067 26.4904 27.8919 25.638C27.1463 25.029 26.6692 24.103 26.6692 23.0675C26.6692 21.2379 28.1577 19.7494 29.9873 19.7494C31.8169 19.7494 33.3054 21.2379 33.3054 23.0675C33.3054 24.103 32.8283 25.029 32.0827 25.638C34.3679 26.4905 36 28.6946 36 31.2733ZM29.9873 25.2606C31.1966 25.2606 32.1804 24.2768 32.1804 23.0675C32.1804 21.8582 31.1966 20.8744 29.9873 20.8744C28.778 20.8744 27.7942 21.8582 27.7942 23.0675C27.7942 24.2768 28.778 25.2606 29.9873 25.2606ZM34.8429 30.7108C34.5631 28.2796 32.4922 26.3856 29.9873 26.3856C27.4823 26.3856 25.4115 28.2796 25.1317 30.7108H34.8429ZM12.0254 31.2733C12.0254 31.4225 11.9661 31.5655 11.8607 31.671C11.7552 31.7765 11.6121 31.8358 11.4629 31.8358H0.5625C0.413316 31.8358 0.270242 31.7765 0.164752 31.671C0.0592632 31.5655 0 31.4225 0 31.2733C0 28.6945 1.63209 26.4904 3.91732 25.6379C3.17173 25.0289 2.69466 24.103 2.69466 23.0675C2.69466 21.2379 4.18317 19.7494 6.0127 19.7494C7.84223 19.7494 9.33075 21.2379 9.33075 23.0675C9.33075 24.103 8.85368 25.029 8.10802 25.638C10.3933 26.4905 12.0254 28.6946 12.0254 31.2733ZM3.81966 23.0675C3.81966 24.2768 4.80347 25.2606 6.0127 25.2606C7.22194 25.2606 8.20575 24.2768 8.20575 23.0675C8.20575 21.8582 7.22194 20.8744 6.0127 20.8744C4.80347 20.8744 3.81966 21.8582 3.81966 23.0675ZM10.8683 30.7108C10.5885 28.2796 8.51759 26.3856 6.01263 26.3856C3.50768 26.3856 1.43691 28.2796 1.15706 30.7108H10.8683Z" fill="#9980C1"/>
</g>
<defs>
<clipPath id="clip0_1020_8237">
<rect width="36" height="36" fill="white"/>
</clipPath>
</defs>
</svg>
