<svg width="582" height="430" viewBox="0 0 582 430" fill="none" xmlns="http://www.w3.org/2000/svg">
<path d="M286.827 59.4033L279.15 165.47L368.407 101.234" stroke="#B88FF9" stroke-width="0.5" stroke-miterlimit="10"/>
<path d="M351.001 130.891L276.596 168.045L362.017 176.351" stroke="url(#paint0_linear_464_7695)" stroke-width="0.5" stroke-miterlimit="10"/>
<path d="M362.902 177.04C376.544 177.04 387.603 165.981 387.603 152.339C387.603 138.697 376.544 127.638 362.902 127.638C349.26 127.638 338.201 138.697 338.201 152.339C338.201 165.981 349.26 177.04 362.902 177.04Z" fill="url(#paint1_radial_464_7695)"/>
<path d="M389.483 166.836C397.494 152.149 392.081 133.749 377.394 125.739C362.707 117.729 344.307 123.141 336.297 137.829C328.287 152.516 333.699 170.915 348.386 178.926C363.073 186.936 381.473 181.523 389.483 166.836Z" stroke="url(#paint2_radial_464_7695)" stroke-width="0.5" stroke-miterlimit="10"/>
<path d="M317.39 241.874L299.236 229.756L316.12 222.063L334.273 234.18L317.39 241.874Z" fill="url(#paint3_linear_464_7695)"/>
<path d="M299.236 229.756L302.003 208.106L318.886 200.412L316.12 222.063L299.236 229.756Z" fill="url(#paint4_linear_464_7695)"/>
<path d="M318.886 200.412L336.85 212.616L334.273 234.18L316.119 222.063L318.886 200.412Z" fill="url(#paint5_linear_464_7695)"/>
<path d="M341.409 210.527L319.081 195.359L298.096 204.922L294.656 231.833L317.222 246.893L338.207 237.33L341.409 210.527Z" stroke="url(#paint6_linear_464_7695)" stroke-width="0.3567" stroke-miterlimit="10"/>
<path d="M338.208 237.33L411.686 165.085L319.082 195.359" stroke="url(#paint7_linear_464_7695)" stroke-width="0.3567" stroke-miterlimit="10"/>
<path d="M411.685 165.085L294.656 231.832" stroke="url(#paint8_linear_464_7695)" stroke-width="0.3567" stroke-miterlimit="10"/>
<path d="M374.828 325.292L336.863 327.443L352.306 299.047L390.27 296.895L374.828 325.292Z" fill="url(#paint9_linear_464_7695)"/>
<path d="M336.862 327.445L318.033 294.409L333.476 266.012L352.305 299.049L336.862 327.445Z" fill="url(#paint10_linear_464_7695)"/>
<path d="M333.477 266.011L371.267 264.18L390.27 296.895L352.306 299.048L333.477 266.011Z" fill="url(#paint11_linear_464_7695)"/>
<path d="M375.425 256.495L328.453 258.771L309.26 294.066L332.663 335.13L379.85 332.454L399.045 297.159L375.425 256.495Z" stroke="url(#paint12_linear_464_7695)" stroke-width="0.6215" stroke-miterlimit="10"/>
<path d="M399.046 297.16L409.088 165.349L328.453 258.772" stroke="url(#paint13_linear_464_7695)" stroke-width="0.6215" stroke-miterlimit="10"/>
<path d="M409.089 165.349L332.664 335.13" stroke="url(#paint14_linear_464_7695)" stroke-width="0.6215" stroke-miterlimit="10"/>
<path opacity="0.4" d="M487.307 429.959C539.283 429.959 581.419 427.279 581.419 423.972C581.419 420.666 539.283 417.985 487.307 417.985C435.331 417.985 393.195 420.666 393.195 423.972C393.195 427.279 435.331 429.959 487.307 429.959Z" fill="#9980C1" fill-opacity="0.4"/>
<path d="M532.109 248.331C532.109 248.331 534.917 270.017 528.81 271.3C522.703 272.584 520.992 239.87 520.992 239.87L532.109 207.154L527.646 204.215C530.46 199.584 534.599 191.467 534.905 183.345C544.065 192.133 551.042 200.879 551.78 203.447C553.279 208.654 532.109 248.331 532.109 248.331Z" fill="url(#paint15_linear_464_7695)"/>
<path d="M490.729 164.542C490.729 164.542 475.347 168.252 475.364 168.037C475.371 167.941 474.984 165.637 474.579 163.299C474.158 160.805 473.712 158.253 473.712 158.253C473.712 158.253 465.801 161.559 463.912 159.194C462.031 156.823 460.988 151.933 460.988 151.933C460.988 151.933 457.971 151.21 457.806 150.626C457.636 150.041 459.13 145.652 459.733 144.347C460.343 143.035 459.781 136.558 460.758 131.484L473.93 129.529L486.404 131.81C486.404 131.81 488.8 142.081 488.353 147.696C487.905 153.31 490.729 164.542 490.729 164.542Z" fill="url(#paint16_linear_464_7695)"/>
<path d="M471.457 171.019C471.457 171.019 472.099 165 473.381 164.39C474.664 163.781 489.49 158.822 491.698 160.144C493.908 161.467 494.549 168.381 494.692 168.594" fill="#6D9985"/>
<path d="M460.152 125.645C455.127 124.101 452.417 127.603 455.458 130.706C458.5 133.808 470.147 134.806 470.147 134.806C470.147 134.806 473.231 142.774 474.387 143.51C475.544 144.245 473.611 135.298 478.752 135.386C483.893 135.472 483.06 144.129 478.461 145.336C478.461 145.336 481.455 151.723 484.681 153.41C487.908 155.097 492.358 153.092 494.137 147.8C495.916 142.508 499.643 133.437 493.275 132.574C499.827 127.518 491.662 118.717 482.312 119.402C472.962 120.088 460.956 114.627 458.266 116.987C455.577 119.346 455.882 123.588 460.152 125.645Z" fill="#414042"/>
<path d="M477.616 142.943C476.218 142.081 477.458 138.18 479.865 138.939" stroke="#CA4570" stroke-width="0.5" stroke-miterlimit="10" stroke-linecap="round" stroke-linejoin="round"/>
<path d="M466.033 143.991C466.111 144.735 465.692 145.389 465.097 145.451C464.502 145.514 463.955 144.962 463.877 144.218C463.799 143.474 464.217 142.82 464.812 142.758C465.407 142.695 465.955 143.247 466.033 143.991Z" fill="#33256D"/>
<path d="M462.301 140.96C462.301 140.96 463.583 138.774 466.812 140.426" stroke="#33256D" stroke-width="0.5" stroke-miterlimit="10" stroke-linecap="round"/>
<path d="M465.928 154.579C465.928 154.579 467.918 155.167 469.637 153.104" stroke="#CA4570" stroke-width="0.5" stroke-miterlimit="10" stroke-linecap="round" stroke-linejoin="round"/>
<path d="M474.582 163.299C474.161 160.805 473.715 158.253 473.715 158.253C477.712 156.803 479.001 154.751 479.001 154.751C479.001 154.751 478.847 160.895 474.582 163.299Z" fill="#CA4570"/>
<path d="M548.142 398.027H520.493L508.555 328.818L501.957 290.545L491.129 398.027H466.449C466.449 398.027 466.851 304.331 469.083 253.634C469.191 251.199 469.305 248.859 469.419 246.64L527.296 239.339L528.808 250.827L548.142 398.027Z" fill="#414042"/>
<path d="M466.45 398.026L436.763 421.735C435.836 422.475 436.36 423.97 437.547 423.97H491.228C491.948 423.97 492.52 423.366 492.481 422.647L491.131 398.026H466.45Z" fill="white"/>
<path d="M522.642 398.026L512.33 420.615C511.613 422.185 512.761 423.97 514.488 423.97H546.241C547.601 423.97 548.682 422.828 548.608 421.47L547.323 398.028H522.642V398.026Z" fill="white"/>
<path d="M534.905 183.344C534.599 191.467 530.459 199.583 527.646 204.215L511.371 193.513L496.848 188.126L504.1 162.738C513.746 165.204 525.486 174.292 534.905 183.344Z" fill="url(#paint17_linear_464_7695)"/>
<path d="M528.809 250.827C513.05 260.677 487.411 261.631 469.084 253.634C469.192 251.199 469.306 248.859 469.42 246.64L527.297 239.339L528.809 250.827Z" fill="#2F2F30"/>
<path d="M428.833 196.465C428.833 196.465 435.367 187.912 434.452 182.923C433.538 177.934 430.853 169.095 427.064 172.089C423.275 175.082 419.825 188.377 419.711 189.693C419.598 191.011 419.767 199.483 419.767 199.483L425.413 203.449" fill="url(#paint18_linear_464_7695)"/>
<path d="M432.364 195.598L417.222 196.46C415.768 196.542 414.315 195.382 413.976 193.868L407.251 163.901C406.912 162.387 407.815 161.094 409.268 161.011L424.409 160.15C425.862 160.067 427.316 161.227 427.656 162.741L434.38 192.709C434.72 194.222 433.817 195.515 432.364 195.598Z" fill="#33256D"/>
<path d="M430.804 192.763L417.709 193.508C416.452 193.58 415.195 192.576 414.901 191.267L409.085 165.35C408.791 164.041 409.572 162.921 410.83 162.849L423.924 162.104C425.182 162.032 426.439 163.036 426.733 164.345L432.548 190.263C432.842 191.572 432.061 192.691 430.804 192.763Z" fill="white"/>
<path opacity="0.56" d="M435.009 188.629L421.914 189.374C420.657 189.446 419.4 188.441 419.106 187.132L413.29 161.215C412.996 159.906 413.778 158.787 415.035 158.715L428.129 157.969C429.387 157.897 430.644 158.9 430.938 160.211L436.753 186.128C437.047 187.438 436.266 188.558 435.009 188.629Z" fill="url(#paint19_linear_464_7695)"/>
<path d="M415.15 201.024C415.15 201.024 408.416 191.653 408.416 187.804C408.416 183.956 410.447 175.509 413.12 176.471C415.793 177.434 413.547 185.558 413.547 185.558C413.547 185.558 425.308 195.394 426.697 199.67C428.086 203.946 425.093 205.977 425.093 205.977" fill="url(#paint20_linear_464_7695)"/>
<path d="M528.33 241.509C528.33 242.793 484.568 251.204 478.299 252.913C472.024 254.623 468.461 252.625 468.893 248.348C469.073 246.567 468.155 238.762 467.027 230.28C465.521 218.912 463.632 206.32 463.482 205.36L463.476 205.3L456.655 218.042L440.758 202.733C443.631 193.86 447.333 183.506 449.93 180.069C454.777 173.656 483.716 165.39 483.716 165.39C508.659 158.971 512.654 164.958 518.353 175.222C524.058 185.486 528.33 240.226 528.33 241.509Z" fill="url(#paint21_linear_464_7695)"/>
<path d="M456.655 218.042L442.563 244.365C439.444 250.196 430.853 249.428 428.814 243.141L415.148 201.023L427.314 196.968L428.832 196.464L429.228 197.538L436.39 216.992C436.39 216.992 438.262 210.417 440.758 202.733L456.655 218.042Z" fill="url(#paint22_linear_464_7695)"/>
<path d="M436.391 216.992L433.539 225.259" stroke="#CA4570" stroke-width="0.5" stroke-miterlimit="10" stroke-linecap="round" stroke-linejoin="round"/>
<path d="M467.028 230.28C465.522 218.912 463.633 206.32 463.483 205.36L463.477 205.3L466.896 196.464C466.896 196.464 472.493 214.449 467.028 230.28Z" fill="#6D9985"/>
<path d="M508.558 328.819L501.959 290.546C501.959 290.546 514.509 278.002 515.079 278.716C515.45 279.178 511.425 308.398 508.558 328.819Z" fill="#2F2F30"/>
<path d="M262.533 396.815C250.507 380.992 252.218 354.478 253.714 355.334C255.211 356.189 267.613 383.13 267.613 383.13C267.613 383.13 264.406 346.353 271.675 336.303C278.945 326.254 277.448 387.835 277.448 387.835C277.448 387.835 285.36 366.239 291.989 367.521C298.617 368.804 291.133 399.833 280.655 405.273" fill="url(#paint23_linear_464_7695)"/>
<path d="M289.309 393.181H256.286C253.497 393.181 251.385 395.7 251.873 398.446L255.751 420.274C256.131 422.413 257.991 423.973 260.164 423.973H285.432C287.605 423.973 289.466 422.414 289.845 420.274L293.723 398.446C294.21 395.7 292.098 393.181 289.309 393.181Z" fill="#9980C1"/>
<path opacity="0.4" d="M225.112 429.958C277.088 429.958 319.223 427.278 319.223 423.971C319.223 420.665 277.088 417.984 225.112 417.984C173.135 417.984 131 420.665 131 423.971C131 427.278 173.135 429.958 225.112 429.958Z" fill="#9980C1" fill-opacity="0.4"/>
<path d="M219.186 213.371C219.613 213.249 236.61 227.574 242.17 229.285C247.731 230.996 271.339 192.951 271.339 192.951L269.243 177.047L241.031 202.237L229.402 193.511" fill="url(#paint24_linear_464_7695)"/>
<path d="M179.485 405.273L174.53 412.424H150.715L151.501 398.026H176.18L179.485 405.273Z" fill="url(#paint25_linear_464_7695)"/>
<path d="M150.682 398.027H178.33L190.268 328.818L196.867 290.545L207.695 398.027H232.374C232.374 398.027 231.973 304.33 229.741 253.634C229.633 251.198 229.519 248.858 229.405 246.639L173.38 225.259L170.016 250.826L150.682 398.027Z" fill="#414042"/>
<path d="M190.267 328.818L196.866 290.545C196.866 290.545 184.317 278.001 183.747 278.715C183.375 279.177 187.4 308.397 190.267 328.818Z" fill="#2F2F30"/>
<path d="M261.279 423.972H207.595C206.875 423.972 206.305 423.366 206.341 422.646L206.899 412.424L207.691 398.026H232.371L243.031 406.539L262.059 421.734C262.989 422.478 262.461 423.972 261.279 423.972Z" fill="white"/>
<path d="M184.339 423.972H152.586C151.225 423.972 150.139 422.826 150.217 421.47L150.715 412.424H174.53L179.485 405.273L186.492 420.613C187.212 422.184 186.06 423.972 184.339 423.972Z" fill="white"/>
<path d="M243.032 406.539L239.816 412.424H206.9L207.692 398.026H232.372L243.032 406.539Z" fill="url(#paint26_linear_464_7695)"/>
<path d="M269.993 196.465C269.993 196.465 263.459 187.912 264.373 182.923C265.287 177.934 267.971 169.095 271.761 172.089C275.55 175.082 279.001 188.377 279.115 189.693C279.227 191.011 279.058 199.483 279.058 199.483L273.412 203.449" fill="url(#paint27_linear_464_7695)"/>
<path d="M266.46 195.598L281.601 196.46C283.055 196.542 284.508 195.382 284.848 193.868L291.572 163.901C291.912 162.387 291.008 161.094 289.556 161.011L274.414 160.15C272.96 160.067 271.507 161.227 271.168 162.741L264.443 192.709C264.102 194.222 265.006 195.515 266.46 195.598Z" fill="#33256D"/>
<path d="M268.021 192.763L281.116 193.508C282.373 193.58 283.63 192.576 283.924 191.267L289.74 165.35C290.034 164.041 289.252 162.921 287.995 162.849L274.901 162.104C273.643 162.032 272.386 163.036 272.092 164.345L266.277 190.263C265.983 191.572 266.764 192.691 268.021 192.763Z" fill="white"/>
<path opacity="0.52" d="M261.773 188.629L274.867 189.374C276.124 189.446 277.382 188.441 277.676 187.132L283.491 161.215C283.785 159.906 283.004 158.787 281.747 158.715L268.652 157.969C267.395 157.897 266.138 158.9 265.844 160.211L260.028 186.128C259.736 187.438 260.517 188.558 261.773 188.629Z" fill="url(#paint28_linear_464_7695)"/>
<path d="M283.674 201.024C283.674 201.024 290.409 191.653 290.409 187.804C290.409 183.956 288.377 175.509 285.704 176.471C283.031 177.434 285.277 185.558 285.277 185.558C285.277 185.558 273.517 195.394 272.128 199.67C270.738 203.946 273.732 205.977 273.732 205.977" fill="url(#paint29_linear_464_7695)"/>
<path d="M172.256 229.677C172.256 230.961 216.018 244.079 222.287 245.789C228.561 247.499 232.125 245.501 231.693 241.224C231.513 239.442 230.669 238.762 231.797 230.28C233.303 218.912 235.193 206.32 235.343 205.36L235.349 205.3L242.169 218.042L258.066 202.733C255.193 193.86 251.492 183.506 248.894 180.069C244.047 173.656 215.108 165.39 215.108 165.39C190.165 158.971 186.17 164.958 180.471 175.222C174.766 185.486 172.256 228.393 172.256 229.677Z" fill="url(#paint30_linear_464_7695)"/>
<path d="M242.17 218.042L256.261 244.365C259.381 250.196 267.971 249.428 270.011 243.141L283.676 201.023L271.51 196.968L269.993 196.464L269.597 197.538L262.434 216.992C262.434 216.992 260.562 210.417 258.067 202.733L242.17 218.042Z" fill="url(#paint31_linear_464_7695)"/>
<path d="M262.434 216.992L265.285 225.259" stroke="#CA4570" stroke-width="0.5" stroke-miterlimit="10" stroke-linecap="round" stroke-linejoin="round"/>
<path d="M231.797 230.28C233.303 218.912 235.193 206.32 235.343 205.36L235.349 205.3L231.929 196.464C231.929 196.464 226.332 214.449 231.797 230.28Z" fill="#6D9985"/>
<path d="M208.098 164.542C208.098 164.542 223.48 168.252 223.463 168.037C223.456 167.941 223.844 165.637 224.248 163.299C224.669 160.805 225.115 158.253 225.115 158.253C225.115 158.253 233.027 161.559 234.915 159.194C236.796 156.823 237.839 151.933 237.839 151.933C237.839 151.933 240.856 151.21 241.021 150.626C241.191 150.041 239.697 145.652 239.095 144.347C238.486 143.035 239.046 136.558 238.07 131.484L224.898 129.529L212.424 131.81C212.424 131.81 210.028 142.081 210.476 147.696C210.922 153.31 208.098 164.542 208.098 164.542Z" fill="url(#paint32_linear_464_7695)"/>
<path d="M227.37 171.019C227.37 171.019 226.728 165 225.445 164.39C224.163 163.781 209.337 158.822 207.128 160.144C204.918 161.467 204.278 168.381 204.135 168.594" fill="#6D9985"/>
<path d="M221.211 142.943C222.607 142.081 221.368 138.18 218.961 138.939" stroke="#CA4570" stroke-width="0.5" stroke-miterlimit="10" stroke-linecap="round" stroke-linejoin="round"/>
<path d="M232.791 143.99C232.713 144.734 233.131 145.388 233.726 145.45C234.322 145.513 234.869 144.961 234.947 144.217C235.025 143.473 234.606 142.819 234.011 142.757C233.416 142.694 232.87 143.246 232.791 143.99Z" fill="#33256D"/>
<path d="M236.527 140.96C236.527 140.96 235.244 138.774 232.016 140.426" stroke="#33256D" stroke-width="0.5" stroke-miterlimit="10" stroke-linecap="round"/>
<path d="M232.899 154.579C232.899 154.579 230.909 155.167 229.189 153.104" stroke="#CA4570" stroke-width="0.5" stroke-miterlimit="10" stroke-linecap="round" stroke-linejoin="round"/>
<path d="M224.245 163.299C224.666 160.805 225.112 158.253 225.112 158.253C221.116 156.803 219.826 154.751 219.826 154.751C219.826 154.751 219.979 160.895 224.245 163.299Z" fill="#CA4570"/>
<path d="M229.984 131.748L223.835 140.429C223.607 138.107 222.947 135.336 220.073 135.384C214.932 135.474 215.766 144.13 220.361 145.336C220.355 145.342 220.355 145.354 220.349 145.36C212.173 165.252 219.569 173.95 211.879 185.06C204.182 196.176 218.052 211.431 204.134 219.416C190.211 227.394 166.551 224.833 170.541 197.748C174.53 170.663 182.514 165.924 182.088 154.748C181.657 143.578 193.918 142.846 195.916 129.529C197.842 116.655 218.082 112.366 228.37 118.143C228.724 118.335 229.072 118.551 229.402 118.773C239.294 125.473 229.984 131.748 229.984 131.748Z" fill="#414042"/>
<path d="M224.564 117.848C241.029 115.995 246.73 123.55 243.95 130.963C241.171 138.375 226.987 134.028 226.987 134.028" fill="#414042"/>
<rect y="328" width="176" height="40" rx="20" fill="white"/>
<mask id="mask0_464_7695" style="mask-type:alpha" maskUnits="userSpaceOnUse" x="22" y="338" width="20" height="20">
<rect x="22" y="338" width="20" height="20" fill="#D9D9D9"/>
</mask>
<g mask="url(#mask0_464_7695)">
<path d="M36.7743 355.085H28.0083V345.085L33.5372 339.588L34.2422 340.293C34.3288 340.379 34.4006 340.494 34.4579 340.637C34.5149 340.779 34.5435 340.914 34.5435 341.04V341.251L33.6589 345.085H39.2422C39.6386 345.085 39.9888 345.237 40.2927 345.541C40.5967 345.844 40.7487 346.195 40.7487 346.591V347.937C40.7487 348.024 40.7374 348.117 40.7149 348.217C40.6926 348.318 40.6675 348.411 40.6397 348.498L38.2518 354.133C38.1322 354.4 37.932 354.625 37.651 354.809C37.37 354.993 37.0778 355.085 36.7743 355.085ZM29.2583 353.835H36.7743C36.8331 353.835 36.8931 353.819 36.9545 353.786C37.0161 353.754 37.0629 353.701 37.0949 353.626L39.4987 348.001V346.591C39.4987 346.516 39.4747 346.455 39.4266 346.407C39.3786 346.359 39.3171 346.335 39.2422 346.335H32.0789L33.1237 341.767L29.2583 345.617V353.835ZM28.0083 345.085V346.335H25.332V353.835H28.0083V355.085H24.082V345.085H28.0083Z" fill="#0E1218"/>
</g>
<path d="M55.71 352.64C53.358 352.64 52.182 351.455 52.182 349.084V348.692H53.778V349.196C53.778 349.943 53.8993 350.461 54.142 350.75C54.394 351.039 54.9027 351.184 55.668 351.184C56.4333 351.184 56.9373 351.039 57.18 350.75C57.4227 350.461 57.544 349.943 57.544 349.196V343.12H59.154V349.084C59.154 350.195 58.874 351.067 58.314 351.702C57.754 352.327 56.886 352.64 55.71 352.64ZM64.2186 352.64C63.1546 352.64 62.3099 352.309 61.6846 351.646C61.0593 350.983 60.7466 350.106 60.7466 349.014C60.7466 347.931 61.0593 347.059 61.6846 346.396C62.3099 345.733 63.1546 345.402 64.2186 345.402C65.2733 345.402 66.1039 345.733 66.7106 346.396C67.3266 347.049 67.6346 347.922 67.6346 349.014C67.6346 350.106 67.3266 350.983 66.7106 351.646C66.1039 352.309 65.2733 352.64 64.2186 352.64ZM62.6786 350.764C62.9866 351.119 63.4999 351.296 64.2186 351.296C64.9373 351.296 65.4413 351.119 65.7306 350.764C66.0293 350.4 66.1786 349.817 66.1786 349.014C66.1786 348.221 66.0293 347.647 65.7306 347.292C65.4319 346.928 64.9279 346.746 64.2186 346.746C63.4999 346.746 62.9866 346.928 62.6786 347.292C62.3799 347.647 62.2306 348.221 62.2306 349.014C62.2306 349.817 62.3799 350.4 62.6786 350.764ZM70.7246 352.5H69.3386V343.12H70.8506V346.648H70.8786C71.0466 346.303 71.3312 346.009 71.7326 345.766C72.1432 345.523 72.6379 345.402 73.2166 345.402C74.1592 345.402 74.8826 345.724 75.3866 346.368C75.8906 347.012 76.1426 347.894 76.1426 349.014C76.1426 350.134 75.8812 351.021 75.3586 351.674C74.8359 352.318 74.0939 352.64 73.1326 352.64C71.9192 352.64 71.1352 352.211 70.7806 351.352H70.7246V352.5ZM70.8506 349.644C70.8506 350.783 71.4806 351.352 72.7406 351.352C73.4219 351.352 73.9072 351.175 74.1966 350.82C74.4952 350.465 74.6446 349.863 74.6446 349.014C74.6446 348.174 74.4952 347.577 74.1966 347.222C73.8979 346.867 73.4126 346.69 72.7406 346.69C71.4806 346.69 70.8506 347.259 70.8506 348.398V349.644ZM85.253 352.64C83.8996 352.64 82.831 352.206 82.047 351.338C81.263 350.461 80.871 349.285 80.871 347.81C80.871 346.335 81.263 345.164 82.047 344.296C82.831 343.419 83.8996 342.98 85.253 342.98C86.513 342.98 87.5023 343.307 88.221 343.96C88.9396 344.613 89.299 345.505 89.299 346.634V346.718H87.689V346.634C87.689 345.859 87.493 345.299 87.101 344.954C86.7183 344.609 86.0883 344.436 85.211 344.436C84.231 344.436 83.531 344.697 83.111 345.22C82.691 345.733 82.481 346.597 82.481 347.81C82.481 349.023 82.691 349.891 83.111 350.414C83.531 350.927 84.231 351.184 85.211 351.184C86.0883 351.184 86.7183 351.011 87.101 350.666C87.493 350.321 87.689 349.761 87.689 348.986V348.902H89.299V348.986C89.299 350.115 88.9396 351.007 88.221 351.66C87.5023 352.313 86.513 352.64 85.253 352.64ZM94.2945 352.64C93.2305 352.64 92.3859 352.309 91.7605 351.646C91.1352 350.983 90.8225 350.106 90.8225 349.014C90.8225 347.931 91.1352 347.059 91.7605 346.396C92.3859 345.733 93.2305 345.402 94.2945 345.402C95.3492 345.402 96.1799 345.733 96.7865 346.396C97.4025 347.049 97.7105 347.922 97.7105 349.014C97.7105 350.106 97.4025 350.983 96.7865 351.646C96.1799 352.309 95.3492 352.64 94.2945 352.64ZM92.7545 350.764C93.0625 351.119 93.5759 351.296 94.2945 351.296C95.0132 351.296 95.5172 351.119 95.8065 350.764C96.1052 350.4 96.2545 349.817 96.2545 349.014C96.2545 348.221 96.1052 347.647 95.8065 347.292C95.5079 346.928 95.0039 346.746 94.2945 346.746C93.5759 346.746 93.0625 346.928 92.7545 347.292C92.4559 347.647 92.3065 348.221 92.3065 349.014C92.3065 349.817 92.4559 350.4 92.7545 350.764ZM100.913 352.5H99.4008V345.542H100.787V346.844H100.843C101.263 345.883 102.056 345.402 103.223 345.402C104.399 345.402 105.169 345.883 105.533 346.844H105.575C106.004 345.883 106.807 345.402 107.983 345.402C108.841 345.402 109.485 345.649 109.915 346.144C110.353 346.639 110.573 347.301 110.573 348.132V352.5H109.061V348.468C109.061 347.833 108.939 347.381 108.697 347.11C108.463 346.839 108.039 346.704 107.423 346.704C106.835 346.704 106.405 346.839 106.135 347.11C105.873 347.381 105.743 347.829 105.743 348.454V352.5H104.231V348.468C104.231 347.833 104.109 347.381 103.867 347.11C103.633 346.839 103.209 346.704 102.593 346.704C102.005 346.704 101.575 346.839 101.305 347.11C101.043 347.381 100.913 347.824 100.913 348.44V352.5ZM114.022 354.922H112.524V345.542H113.896V346.69H113.966C114.302 345.831 115.077 345.402 116.29 345.402C117.261 345.402 118.007 345.729 118.53 346.382C119.062 347.026 119.328 347.908 119.328 349.028C119.328 350.139 119.071 351.021 118.558 351.674C118.045 352.318 117.321 352.64 116.388 352.64C115.8 352.64 115.305 352.528 114.904 352.304C114.512 352.071 114.232 351.777 114.064 351.422H114.022V354.922ZM114.022 349.644C114.022 350.783 114.657 351.352 115.926 351.352C116.598 351.352 117.079 351.175 117.368 350.82C117.667 350.465 117.816 349.868 117.816 349.028C117.816 348.179 117.671 347.577 117.382 347.222C117.093 346.867 116.607 346.69 115.926 346.69C114.657 346.69 114.022 347.259 114.022 348.398V349.644ZM122.609 352.5H121.097V343.12H122.609V352.5ZM127.69 352.64C126.58 352.64 125.74 352.318 125.17 351.674C124.601 351.021 124.316 350.134 124.316 349.014C124.316 347.931 124.62 347.059 125.226 346.396C125.833 345.733 126.65 345.402 127.676 345.402C128.628 345.402 129.398 345.673 129.986 346.214C130.574 346.755 130.868 347.493 130.868 348.426C130.868 348.781 130.84 349.098 130.784 349.378H125.73C125.758 350.041 125.917 350.526 126.206 350.834C126.505 351.142 127.004 351.296 127.704 351.296C128.778 351.296 129.314 350.955 129.314 350.274V350.162H130.812V350.288C130.812 350.997 130.528 351.567 129.958 351.996C129.389 352.425 128.633 352.64 127.69 352.64ZM127.648 346.676C127.014 346.676 126.547 346.821 126.248 347.11C125.959 347.39 125.791 347.81 125.744 348.37H129.426C129.454 347.791 129.314 347.367 129.006 347.096C128.708 346.816 128.255 346.676 127.648 346.676ZM135.479 352.5C134.676 352.5 134.079 352.337 133.687 352.01C133.304 351.674 133.113 351.123 133.113 350.358V346.802H131.951V345.542H133.141L133.463 343.82H134.625V345.542H136.725V346.802H134.625V350.288C134.625 350.643 134.709 350.876 134.877 350.988C135.054 351.091 135.385 351.142 135.871 351.142H136.725V352.374C136.37 352.458 135.955 352.5 135.479 352.5ZM141.156 352.64C140.045 352.64 139.205 352.318 138.636 351.674C138.067 351.021 137.782 350.134 137.782 349.014C137.782 347.931 138.085 347.059 138.692 346.396C139.299 345.733 140.115 345.402 141.142 345.402C142.094 345.402 142.864 345.673 143.452 346.214C144.04 346.755 144.334 347.493 144.334 348.426C144.334 348.781 144.306 349.098 144.25 349.378H139.196C139.224 350.041 139.383 350.526 139.672 350.834C139.971 351.142 140.47 351.296 141.17 351.296C142.243 351.296 142.78 350.955 142.78 350.274V350.162H144.278V350.288C144.278 350.997 143.993 351.567 143.424 351.996C142.855 352.425 142.099 352.64 141.156 352.64ZM141.114 346.676C140.479 346.676 140.013 346.821 139.714 347.11C139.425 347.39 139.257 347.81 139.21 348.37H142.892C142.92 347.791 142.78 347.367 142.472 347.096C142.173 346.816 141.721 346.676 141.114 346.676ZM148.955 352.64C147.975 352.64 147.219 352.318 146.687 351.674C146.155 351.021 145.889 350.134 145.889 349.014C145.889 347.903 146.15 347.026 146.673 346.382C147.196 345.729 147.928 345.402 148.871 345.402C149.45 345.402 149.93 345.519 150.313 345.752C150.705 345.985 150.985 346.275 151.153 346.62H151.195V343.12H152.693V352.5H151.307V351.352H151.251C150.887 352.211 150.122 352.64 148.955 352.64ZM147.835 347.222C147.546 347.567 147.401 348.165 147.401 349.014C147.401 349.863 147.546 350.465 147.835 350.82C148.124 351.175 148.61 351.352 149.291 351.352C150.56 351.352 151.195 350.783 151.195 349.644V348.398C151.195 347.259 150.56 346.69 149.291 346.69C148.619 346.69 148.134 346.867 147.835 347.222Z" fill="#0E1218"/>
<path d="M453.721 95H298.276C292.049 95 287 90.3098 287 84.5233V11.4767C287 5.69018 292.049 1 298.276 1H453.721C459.951 1 465 5.69018 465 11.4767V84.5233C464.998 90.3098 459.949 95 453.721 95Z" stroke="#9980C1" stroke-width="0.5" stroke-miterlimit="10"/>
<path d="M449.356 90H302.644C296.765 90 292 85.8092 292 80.6388V15.3612C292 10.1908 296.765 6 302.644 6H449.356C455.235 6 460 10.1908 460 15.3612V80.6366C460 85.8092 455.233 90 449.356 90Z" fill="#9980C1" fill-opacity="0.2"/>
<path d="M292 16C292 10.4772 296.477 6 302 6H450C455.523 6 460 10.4772 460 16V39H292V16Z" fill="#9980C1"/>
<path d="M306.296 27H304.784V17.62H308.774C309.782 17.62 310.599 17.9047 311.224 18.474C311.859 19.034 312.176 19.8087 312.176 20.798C312.176 21.7873 311.859 22.5667 311.224 23.136C310.599 23.696 309.782 23.976 308.774 23.976H306.296V27ZM308.956 18.978H306.296V22.618H308.956C309.581 22.618 310.025 22.4827 310.286 22.212C310.547 21.932 310.678 21.4607 310.678 20.798C310.678 20.1353 310.547 19.6687 310.286 19.398C310.025 19.118 309.581 18.978 308.956 18.978ZM315.436 27.14C314.792 27.14 314.26 26.9767 313.84 26.65C313.43 26.3233 313.224 25.866 313.224 25.278C313.224 24.186 313.999 23.5327 315.548 23.318L317.984 22.954V22.576C317.984 22.072 317.863 21.722 317.62 21.526C317.378 21.33 316.976 21.232 316.416 21.232C315.866 21.232 315.469 21.33 315.226 21.526C314.993 21.722 314.876 22.0487 314.876 22.506V22.716H313.42V22.576C313.42 21.792 313.7 21.1527 314.26 20.658C314.83 20.154 315.576 19.902 316.5 19.902C317.443 19.902 318.166 20.1633 318.67 20.686C319.174 21.1993 319.426 21.8947 319.426 22.772V27H318.026V25.908H317.956C317.452 26.7293 316.612 27.14 315.436 27.14ZM314.694 25.166C314.694 25.4367 314.788 25.6327 314.974 25.754C315.17 25.8753 315.488 25.936 315.926 25.936C316.505 25.936 316.99 25.8007 317.382 25.53C317.784 25.25 317.984 24.788 317.984 24.144V24.018L315.772 24.354C315.371 24.41 315.091 24.4987 314.932 24.62C314.774 24.732 314.694 24.914 314.694 25.166ZM322.228 29.38C321.817 29.38 321.467 29.338 321.178 29.254V28.022H322.13C322.438 28.022 322.657 27.98 322.788 27.896C322.928 27.8213 323.054 27.658 323.166 27.406L323.432 26.818L320.478 20.042H322.144L323.544 23.416L324.174 24.928H324.286L324.86 23.416L326.134 20.042H327.8L324.51 27.826C324.258 28.414 323.954 28.82 323.6 29.044C323.254 29.268 322.797 29.38 322.228 29.38ZM330.602 27H329.09V20.042H330.476V21.344H330.532C330.952 20.3827 331.745 19.902 332.912 19.902C334.088 19.902 334.858 20.3827 335.222 21.344H335.264C335.693 20.3827 336.496 19.902 337.672 19.902C338.531 19.902 339.175 20.1493 339.604 20.644C340.043 21.1387 340.262 21.8013 340.262 22.632V27H338.75V22.968C338.75 22.3333 338.629 21.8807 338.386 21.61C338.153 21.3393 337.728 21.204 337.112 21.204C336.524 21.204 336.095 21.3393 335.824 21.61C335.563 21.8807 335.432 22.3287 335.432 22.954V27H333.92V22.968C333.92 22.3333 333.799 21.8807 333.556 21.61C333.323 21.3393 332.898 21.204 332.282 21.204C331.694 21.204 331.265 21.3393 330.994 21.61C330.733 21.8807 330.602 22.324 330.602 22.94V27ZM345.336 27.14C344.225 27.14 343.385 26.818 342.816 26.174C342.246 25.5207 341.962 24.634 341.962 23.514C341.962 22.4313 342.265 21.5587 342.872 20.896C343.478 20.2333 344.295 19.902 345.322 19.902C346.274 19.902 347.044 20.1727 347.632 20.714C348.22 21.2553 348.514 21.9927 348.514 22.926C348.514 23.2807 348.486 23.598 348.43 23.878H343.376C343.404 24.5407 343.562 25.026 343.852 25.334C344.15 25.642 344.65 25.796 345.35 25.796C346.423 25.796 346.96 25.4553 346.96 24.774V24.662H348.458V24.788C348.458 25.4973 348.173 26.0667 347.604 26.496C347.034 26.9253 346.278 27.14 345.336 27.14ZM345.294 21.176C344.659 21.176 344.192 21.3207 343.894 21.61C343.604 21.89 343.436 22.31 343.39 22.87H347.072C347.1 22.2913 346.96 21.8667 346.652 21.596C346.353 21.316 345.9 21.176 345.294 21.176ZM351.792 27H350.28V20.042H351.666V21.344H351.722C352.142 20.3827 352.95 19.902 354.144 19.902C355.012 19.902 355.666 20.1493 356.104 20.644C356.543 21.1387 356.762 21.8013 356.762 22.632V27H355.25V22.968C355.25 22.3333 355.129 21.8807 354.886 21.61C354.644 21.3393 354.21 21.204 353.584 21.204C352.959 21.204 352.502 21.3393 352.212 21.61C351.932 21.8807 351.792 22.338 351.792 22.982V27ZM361.6 27C360.797 27 360.2 26.8367 359.808 26.51C359.425 26.174 359.234 25.6233 359.234 24.858V21.302H358.072V20.042H359.262L359.584 18.32H360.746V20.042H362.846V21.302H360.746V24.788C360.746 25.1427 360.83 25.376 360.998 25.488C361.175 25.5907 361.507 25.642 361.992 25.642H362.846V26.874C362.491 26.958 362.076 27 361.6 27ZM369.196 27H367.684V17.62H371.716C372.761 17.62 373.583 17.8673 374.18 18.362C374.787 18.8567 375.09 19.5427 375.09 20.42C375.09 21.1947 374.861 21.806 374.404 22.254C373.956 22.702 373.317 22.9493 372.486 22.996V23.108C373.083 23.304 373.564 23.7333 373.928 24.396L375.328 27H373.578L372.248 24.578C372.015 24.1393 371.763 23.8313 371.492 23.654C371.231 23.4767 370.834 23.388 370.302 23.388H369.196V27ZM369.196 18.978V22.142H371.898C372.505 22.142 372.934 22.0207 373.186 21.778C373.447 21.5353 373.578 21.1293 373.578 20.56C373.578 20 373.447 19.5987 373.186 19.356C372.934 19.104 372.505 18.978 371.898 18.978H369.196ZM379.636 27.14C378.525 27.14 377.685 26.818 377.116 26.174C376.546 25.5207 376.262 24.634 376.262 23.514C376.262 22.4313 376.565 21.5587 377.172 20.896C377.778 20.2333 378.595 19.902 379.622 19.902C380.574 19.902 381.344 20.1727 381.932 20.714C382.52 21.2553 382.814 21.9927 382.814 22.926C382.814 23.2807 382.786 23.598 382.73 23.878H377.676C377.704 24.5407 377.862 25.026 378.152 25.334C378.45 25.642 378.95 25.796 379.65 25.796C380.723 25.796 381.26 25.4553 381.26 24.774V24.662H382.758V24.788C382.758 25.4973 382.473 26.0667 381.904 26.496C381.334 26.9253 380.578 27.14 379.636 27.14ZM379.594 21.176C378.959 21.176 378.492 21.3207 378.194 21.61C377.904 21.89 377.736 22.31 377.69 22.87H381.372C381.4 22.2913 381.26 21.8667 380.952 21.596C380.653 21.316 380.2 21.176 379.594 21.176ZM387.771 27.154C386.707 27.154 385.871 26.8273 385.265 26.174C384.667 25.5113 384.369 24.6293 384.369 23.528C384.369 22.4267 384.672 21.5493 385.279 20.896C385.895 20.2333 386.744 19.902 387.827 19.902C388.741 19.902 389.483 20.1633 390.053 20.686C390.631 21.1993 390.921 21.8713 390.921 22.702V22.828H389.423V22.744C389.423 22.2307 389.283 21.8573 389.003 21.624C388.732 21.3813 388.307 21.26 387.729 21.26C387.066 21.26 386.59 21.4467 386.301 21.82C386.011 22.184 385.867 22.7533 385.867 23.528C385.867 24.3027 386.011 24.872 386.301 25.236C386.59 25.6 387.066 25.782 387.729 25.782C388.307 25.782 388.732 25.6653 389.003 25.432C389.283 25.1987 389.423 24.8253 389.423 24.312V24.228H390.921V24.354C390.921 25.1847 390.627 25.8613 390.039 26.384C389.46 26.8973 388.704 27.154 387.771 27.154ZM395.781 27.14C394.67 27.14 393.83 26.818 393.261 26.174C392.692 25.5207 392.407 24.634 392.407 23.514C392.407 22.4313 392.71 21.5587 393.317 20.896C393.924 20.2333 394.74 19.902 395.767 19.902C396.719 19.902 397.489 20.1727 398.077 20.714C398.665 21.2553 398.959 21.9927 398.959 22.926C398.959 23.2807 398.931 23.598 398.875 23.878H393.821C393.849 24.5407 394.008 25.026 394.297 25.334C394.596 25.642 395.095 25.796 395.795 25.796C396.868 25.796 397.405 25.4553 397.405 24.774V24.662H398.903V24.788C398.903 25.4973 398.618 26.0667 398.049 26.496C397.48 26.9253 396.724 27.14 395.781 27.14ZM395.739 21.176C395.104 21.176 394.638 21.3207 394.339 21.61C394.05 21.89 393.882 22.31 393.835 22.87H397.517C397.545 22.2913 397.405 21.8667 397.097 21.596C396.798 21.316 396.346 21.176 395.739 21.176ZM402.14 19.16H400.642L400.628 17.62H402.14V19.16ZM402.154 27H400.642V20H402.154V27ZM407.97 27H406.066L403.28 20.042H404.96L406.99 25.558H407.088L409.132 20.042H410.77L407.97 27ZM414.865 27.14C413.755 27.14 412.915 26.818 412.345 26.174C411.776 25.5207 411.491 24.634 411.491 23.514C411.491 22.4313 411.795 21.5587 412.401 20.896C413.008 20.2333 413.825 19.902 414.851 19.902C415.803 19.902 416.573 20.1727 417.161 20.714C417.749 21.2553 418.043 21.9927 418.043 22.926C418.043 23.2807 418.015 23.598 417.959 23.878H412.905C412.933 24.5407 413.092 25.026 413.381 25.334C413.68 25.642 414.179 25.796 414.879 25.796C415.953 25.796 416.489 25.4553 416.489 24.774V24.662H417.987V24.788C417.987 25.4973 417.703 26.0667 417.133 26.496C416.564 26.9253 415.808 27.14 414.865 27.14ZM414.823 21.176C414.189 21.176 413.722 21.3207 413.423 21.61C413.134 21.89 412.966 22.31 412.919 22.87H416.601C416.629 22.2913 416.489 21.8667 416.181 21.596C415.883 21.316 415.43 21.176 414.823 21.176ZM422.664 27.14C421.684 27.14 420.928 26.818 420.396 26.174C419.864 25.5207 419.598 24.634 419.598 23.514C419.598 22.4033 419.86 21.526 420.382 20.882C420.905 20.2287 421.638 19.902 422.58 19.902C423.159 19.902 423.64 20.0187 424.022 20.252C424.414 20.4853 424.694 20.7747 424.862 21.12H424.904V17.62H426.402V27H425.016V25.852H424.96C424.596 26.7107 423.831 27.14 422.664 27.14ZM421.544 21.722C421.255 22.0673 421.11 22.6647 421.11 23.514C421.11 24.3633 421.255 24.9653 421.544 25.32C421.834 25.6747 422.319 25.852 423 25.852C424.27 25.852 424.904 25.2827 424.904 24.144V22.898C424.904 21.7593 424.27 21.19 423 21.19C422.328 21.19 421.843 21.3673 421.544 21.722Z" fill="white"/>
<path d="M357.028 56.4218H305.711C304.767 56.4218 304 55.6563 304 54.7109C304 53.7667 304.765 53 305.711 53H357.028C357.972 53 358.739 53.7655 358.739 54.7109C358.737 55.6563 357.972 56.4218 357.028 56.4218Z" fill="white"/>
<path d="M357.028 66.1161H305.711C304.767 66.1161 304 65.3506 304 64.4052C304 63.461 304.765 62.6943 305.711 62.6943H357.028C357.972 62.6943 358.739 63.4598 358.739 64.4052C358.737 65.3494 357.972 66.1161 357.028 66.1161Z" fill="white"/>
<path d="M325.489 75.8085H305.711C304.767 75.8085 304 75.043 304 74.0976C304 73.1534 304.765 72.3867 305.711 72.3867H325.489C326.435 72.3867 327.2 73.1522 327.2 74.0976C327.199 75.043 326.433 75.8085 325.489 75.8085Z" fill="white"/>
<path d="M411.516 71.8H409.716V70.108C408.432 69.952 407.472 69.538 406.836 68.866C406.212 68.182 405.9 67.312 405.9 66.256V65.95H407.808V66.148C407.808 66.94 408.03 67.516 408.474 67.876C408.918 68.224 409.746 68.398 410.958 68.398C411.834 68.398 412.458 68.272 412.83 68.02C413.202 67.768 413.388 67.36 413.388 66.796C413.388 66.232 413.244 65.824 412.956 65.572C412.68 65.32 412.086 65.104 411.174 64.924L409.122 64.51C406.998 64.102 405.936 62.998 405.936 61.198C405.936 60.322 406.254 59.566 406.89 58.93C407.538 58.282 408.48 57.904 409.716 57.796V56.14H411.516V57.832C412.716 58 413.61 58.444 414.198 59.164C414.798 59.884 415.098 60.754 415.098 61.774V61.99H413.19V61.792C413.19 61.024 412.98 60.46 412.56 60.1C412.152 59.728 411.426 59.542 410.382 59.542C409.506 59.542 408.87 59.668 408.474 59.92C408.078 60.172 407.88 60.568 407.88 61.108C407.88 61.648 408.024 62.032 408.312 62.26C408.6 62.488 409.17 62.692 410.022 62.872L412.074 63.304C414.246 63.748 415.332 64.888 415.332 66.724C415.332 67.66 415.008 68.446 414.36 69.082C413.724 69.706 412.776 70.066 411.516 70.162V71.8ZM426.537 70H417.645V68.794C417.645 67.762 417.927 66.94 418.491 66.328C419.055 65.704 419.853 65.128 420.885 64.6L422.739 63.646C423.411 63.298 423.879 62.962 424.143 62.638C424.419 62.314 424.557 61.9 424.557 61.396C424.557 60.784 424.389 60.322 424.053 60.01C423.717 59.698 423.081 59.542 422.145 59.542C421.089 59.542 420.381 59.722 420.021 60.082C419.673 60.43 419.499 61.042 419.499 61.918V62.17H417.555V61.882C417.555 60.67 417.945 59.68 418.725 58.912C419.517 58.144 420.705 57.76 422.289 57.76C423.705 57.76 424.761 58.09 425.457 58.75C426.153 59.398 426.501 60.256 426.501 61.324C426.501 62.236 426.243 62.992 425.727 63.592C425.211 64.18 424.503 64.702 423.603 65.158L421.839 66.058C421.107 66.43 420.561 66.778 420.201 67.102C419.853 67.414 419.679 67.798 419.679 68.254H426.537V70ZM433.115 70H431.171V60.82H428.633V59.434H429.101C429.677 59.434 430.139 59.32 430.487 59.092C430.847 58.864 431.153 58.48 431.405 57.94H433.115V70ZM445.275 68.506C444.351 69.622 443.079 70.18 441.459 70.18C439.839 70.18 438.567 69.628 437.643 68.524C436.719 67.408 436.257 65.89 436.257 63.97C436.257 62.05 436.719 60.538 437.643 59.434C438.567 58.318 439.839 57.76 441.459 57.76C443.079 57.76 444.351 58.318 445.275 59.434C446.211 60.55 446.679 62.062 446.679 63.97C446.679 65.878 446.211 67.39 445.275 68.506ZM439.065 67.318C439.569 67.978 440.367 68.308 441.459 68.308C442.551 68.308 443.349 67.978 443.853 67.318C444.357 66.646 444.609 65.53 444.609 63.97C444.609 62.41 444.357 61.3 443.853 60.64C443.349 59.968 442.551 59.632 441.459 59.632C440.367 59.632 439.569 59.968 439.065 60.64C438.573 61.3 438.327 62.41 438.327 63.97C438.327 65.53 438.573 66.646 439.065 67.318Z" fill="white"/>
<defs>
<linearGradient id="paint0_linear_464_7695" x1="278.883" y1="144.57" x2="364.809" y2="156.746" gradientUnits="userSpaceOnUse">
<stop stop-color="#9980C1"/>
<stop offset="1" stop-color="#9980C1"/>
</linearGradient>
<radialGradient id="paint1_radial_464_7695" cx="0" cy="0" r="1" gradientUnits="userSpaceOnUse" gradientTransform="translate(348.36 144.722) rotate(8.06528) scale(38.1923 38.1923)">
<stop stop-color="#9980C1"/>
<stop offset="1" stop-color="#5C4088"/>
</radialGradient>
<radialGradient id="paint2_radial_464_7695" cx="0" cy="0" r="1" gradientUnits="userSpaceOnUse" gradientTransform="translate(362.89 152.333) rotate(-53.327) scale(30.5908 30.5907)">
<stop stop-color="#9980C1"/>
<stop offset="1" stop-color="#9980C1"/>
</radialGradient>
<linearGradient id="paint3_linear_464_7695" x1="315.137" y1="198.637" x2="316.562" y2="228.002" gradientUnits="userSpaceOnUse">
<stop stop-color="#97D8FF"/>
<stop offset="1" stop-color="#3B7FFF"/>
</linearGradient>
<linearGradient id="paint4_linear_464_7695" x1="306.611" y1="211.205" x2="346.668" y2="274.639" gradientUnits="userSpaceOnUse">
<stop stop-color="#97D8FF"/>
<stop offset="1" stop-color="#3B7FFF"/>
</linearGradient>
<linearGradient id="paint5_linear_464_7695" x1="323.678" y1="193.207" x2="330.093" y2="248.372" gradientUnits="userSpaceOnUse">
<stop stop-color="#97D8FF"/>
<stop offset="1" stop-color="#3B7FFF"/>
</linearGradient>
<linearGradient id="paint6_linear_464_7695" x1="314.717" y1="195.685" x2="321.338" y2="246.599" gradientUnits="userSpaceOnUse">
<stop stop-color="#97D8FF"/>
<stop offset="1" stop-color="#3B7FFF"/>
</linearGradient>
<linearGradient id="paint7_linear_464_7695" x1="364.574" y1="170.829" x2="372.661" y2="233.022" gradientUnits="userSpaceOnUse">
<stop stop-color="#97D8FF"/>
<stop offset="1" stop-color="#3B7FFF"/>
</linearGradient>
<linearGradient id="paint8_linear_464_7695" x1="349.85" y1="172.926" x2="356.49" y2="223.991" gradientUnits="userSpaceOnUse">
<stop stop-color="#97D8FF"/>
<stop offset="1" stop-color="#3B7FFF"/>
</linearGradient>
<linearGradient id="paint9_linear_464_7695" x1="370.617" y1="281.245" x2="352.673" y2="359.956" gradientUnits="userSpaceOnUse">
<stop stop-color="#97D8FF"/>
<stop offset="1" stop-color="#3B7FFF"/>
</linearGradient>
<linearGradient id="paint10_linear_464_7695" x1="371.317" y1="242.645" x2="321.133" y2="317.729" gradientUnits="userSpaceOnUse">
<stop stop-color="#97D8FF"/>
<stop offset="1" stop-color="#3B7FFF"/>
</linearGradient>
<linearGradient id="paint11_linear_464_7695" x1="370.72" y1="312.639" x2="399.676" y2="414.72" gradientUnits="userSpaceOnUse">
<stop stop-color="#97D8FF"/>
<stop offset="1" stop-color="#3B7FFF"/>
</linearGradient>
<linearGradient id="paint12_linear_464_7695" x1="322.72" y1="263.796" x2="385.272" y2="327.734" gradientUnits="userSpaceOnUse">
<stop stop-color="#97D8FF"/>
<stop offset="1" stop-color="#3B7FFF"/>
</linearGradient>
<linearGradient id="paint13_linear_464_7695" x1="365.192" y1="207.64" x2="426.693" y2="270.503" gradientUnits="userSpaceOnUse">
<stop stop-color="#97D8FF"/>
<stop offset="1" stop-color="#3B7FFF"/>
</linearGradient>
<linearGradient id="paint14_linear_464_7695" x1="346.886" y1="225.718" x2="394.866" y2="274.761" gradientUnits="userSpaceOnUse">
<stop stop-color="#97D8FF"/>
<stop offset="1" stop-color="#3B7FFF"/>
</linearGradient>
<linearGradient id="paint15_linear_464_7695" x1="549.708" y1="264.587" x2="502.24" y2="141.211" gradientUnits="userSpaceOnUse">
<stop stop-color="#FFD1C2"/>
<stop offset="1" stop-color="#F67793"/>
</linearGradient>
<linearGradient id="paint16_linear_464_7695" x1="471.563" y1="165.805" x2="481.622" y2="122.993" gradientUnits="userSpaceOnUse">
<stop stop-color="#FFD1C2"/>
<stop offset="1" stop-color="#F67793"/>
</linearGradient>
<linearGradient id="paint17_linear_464_7695" x1="515.876" y1="204.215" x2="515.876" y2="162.738" gradientUnits="userSpaceOnUse">
<stop stop-color="#6D9985"/>
<stop offset="1" stop-color="#255D43"/>
</linearGradient>
<linearGradient id="paint18_linear_464_7695" x1="412.3" y1="172.908" x2="545.297" y2="308.471" gradientUnits="userSpaceOnUse">
<stop stop-color="#FFD1C2"/>
<stop offset="1" stop-color="#F67793"/>
</linearGradient>
<linearGradient id="paint19_linear_464_7695" x1="411.078" y1="148.524" x2="472.017" y2="258.428" gradientUnits="userSpaceOnUse">
<stop stop-color="#97D8FF"/>
<stop offset="1" stop-color="#3B7FFF"/>
</linearGradient>
<linearGradient id="paint20_linear_464_7695" x1="405.368" y1="179.71" x2="538.365" y2="315.273" gradientUnits="userSpaceOnUse">
<stop stop-color="#FFD1C2"/>
<stop offset="1" stop-color="#F67793"/>
</linearGradient>
<linearGradient id="paint21_linear_464_7695" x1="481.241" y1="173.256" x2="487.869" y2="271.187" gradientUnits="userSpaceOnUse">
<stop stop-color="#255D43"/>
<stop offset="1" stop-color="#6D9985"/>
</linearGradient>
<linearGradient id="paint22_linear_464_7695" x1="398.682" y1="186.267" x2="531.679" y2="321.829" gradientUnits="userSpaceOnUse">
<stop stop-color="#FFD1C2"/>
<stop offset="1" stop-color="#F67793"/>
</linearGradient>
<linearGradient id="paint23_linear_464_7695" x1="273.426" y1="335.952" x2="273.711" y2="396.392" gradientUnits="userSpaceOnUse">
<stop stop-color="#79FFB3"/>
<stop offset="1" stop-color="#3B9DA6"/>
</linearGradient>
<linearGradient id="paint24_linear_464_7695" x1="274.198" y1="91.946" x2="238.704" y2="228.364" gradientUnits="userSpaceOnUse">
<stop stop-color="#FFD1C2"/>
<stop offset="1" stop-color="#F67793"/>
</linearGradient>
<linearGradient id="paint25_linear_464_7695" x1="156.644" y1="457.775" x2="177.456" y2="325.776" gradientUnits="userSpaceOnUse">
<stop stop-color="#FFD1C2"/>
<stop offset="1" stop-color="#F67793"/>
</linearGradient>
<linearGradient id="paint26_linear_464_7695" x1="216.521" y1="458.359" x2="237.334" y2="326.353" gradientUnits="userSpaceOnUse">
<stop stop-color="#FFD1C2"/>
<stop offset="1" stop-color="#F67793"/>
</linearGradient>
<linearGradient id="paint27_linear_464_7695" x1="286.526" y1="172.908" x2="153.529" y2="308.472" gradientUnits="userSpaceOnUse">
<stop stop-color="#FFD1C2"/>
<stop offset="1" stop-color="#F67793"/>
</linearGradient>
<linearGradient id="paint28_linear_464_7695" x1="268.724" y1="143.304" x2="279.415" y2="250.215" gradientUnits="userSpaceOnUse">
<stop stop-color="#9980C1"/>
<stop offset="1" stop-color="#9980C1"/>
</linearGradient>
<linearGradient id="paint29_linear_464_7695" x1="293.458" y1="179.71" x2="160.46" y2="315.273" gradientUnits="userSpaceOnUse">
<stop stop-color="#FFD1C2"/>
<stop offset="1" stop-color="#F67793"/>
</linearGradient>
<linearGradient id="paint30_linear_464_7695" x1="184.5" y1="276.5" x2="222.5" y2="183" gradientUnits="userSpaceOnUse">
<stop stop-color="#6D9985"/>
<stop offset="1" stop-color="#255D43"/>
</linearGradient>
<linearGradient id="paint31_linear_464_7695" x1="300.143" y1="186.267" x2="167.146" y2="321.829" gradientUnits="userSpaceOnUse">
<stop stop-color="#FFD1C2"/>
<stop offset="1" stop-color="#F67793"/>
</linearGradient>
<linearGradient id="paint32_linear_464_7695" x1="227.264" y1="165.805" x2="217.205" y2="122.993" gradientUnits="userSpaceOnUse">
<stop stop-color="#FFD1C2"/>
<stop offset="1" stop-color="#F67793"/>
</linearGradient>
</defs>
</svg>
