<svg width="120" height="131" viewBox="0 0 120 131" fill="none" xmlns="http://www.w3.org/2000/svg">
<path d="M18.2327 56.057L19.055 55.2355L30.0545 44.2326C30.377 43.9134 30.7271 43.687 31.1111 43.5294C31.4909 43.3777 31.9025 43.2982 32.3182 43.2982C32.7298 43.2982 33.1405 43.3756 33.5212 43.5294C33.902 43.687 34.2553 43.9134 34.5778 44.2326L53.3331 62.9911L59.9081 56.4157L41.1506 37.6603C39.9424 36.4493 38.524 35.5254 37.0187 34.916C35.5102 34.3033 33.9126 34 32.3182 34C30.7248 34 29.1274 34.3034 27.6188 34.916C26.1103 35.5254 24.693 36.4493 23.4815 37.6603L11.6597 49.4814C10.4462 50.6923 9.52545 52.1102 8.91334 53.6185C8.30341 55.1269 8 56.7245 8 58.3184C8 59.9123 8.30341 61.5099 8.9166 63.0184C9.52545 64.5241 10.4495 65.942 11.6597 67.1524L38.8443 94.3394C40.058 95.5503 41.4731 96.4743 42.9815 97.0838C44.488 97.6964 46.0844 97.9998 47.6809 97.9998C49.2754 97.9998 50.8729 97.6964 52.3781 97.0838C53.8867 96.4743 55.3081 95.5503 56.5185 94.3394L59.9079 90.9496L66.4806 84.3768L68.3392 82.5183C69.5507 81.3073 70.4746 79.8896 71.0845 78.3812C71.6967 76.8727 72.0001 75.2751 72.0001 73.6812C72.0001 72.0843 71.6935 70.4898 71.0845 68.9814C70.4715 67.4755 69.5506 66.0576 68.3392 64.8494L66.4806 62.9909L59.9079 69.5637L61.7642 71.4222C62.0867 71.7425 62.3138 72.0953 62.4676 72.4788C62.6225 72.8596 62.702 73.2701 62.702 73.6811C62.702 74.0948 62.6225 74.5058 62.4676 74.8888C62.3107 75.2697 62.0867 75.6229 61.7642 75.9454L59.9079 77.8045L53.3329 84.3768L49.9426 87.7671C49.6234 88.0864 49.2701 88.313 48.8871 88.4672C48.5062 88.6221 48.0947 88.7016 47.6809 88.7016C47.2671 88.7016 46.8566 88.6221 46.4758 88.4672C46.096 88.3128 45.7428 88.0864 45.4193 87.7671L18.2327 60.5776C17.9135 60.2573 17.6875 59.9045 17.5295 59.5243C17.3757 59.1434 17.2983 58.7298 17.2983 58.3187C17.2983 57.9051 17.3757 57.4913 17.5295 57.1131C17.6875 56.7299 17.9135 56.3767 18.2327 56.057Z" fill="#9980C1"/>
<path d="M101.581 60.5777L74.3942 87.7674C74.0706 88.0866 73.7174 88.3132 73.3376 88.4675C72.9569 88.6224 72.5462 88.7018 72.1346 88.7018C71.7189 88.7018 71.3073 88.6224 70.9264 88.4675C70.5436 88.313 70.1934 88.0866 69.8709 87.7674L66.4804 84.3771L59.9078 90.9499L63.2948 94.3397C64.5052 95.5505 65.9269 96.4746 67.4352 97.084C68.9405 97.6966 70.5381 98 72.1346 98C73.729 98 75.3255 97.6966 76.8319 97.084C78.3404 96.4746 79.7577 95.5505 80.9659 94.3397L108.156 67.1526C109.367 65.9422 110.288 64.5244 110.897 63.0186C111.51 61.5101 111.814 59.9125 111.814 58.3186C111.814 56.7247 111.51 55.1271 110.9 53.6188C110.288 52.1103 109.367 50.6925 108.154 49.4817H108.156L96.3329 37.6606C95.1204 36.4496 93.7031 35.5257 92.1947 34.9162C90.6862 34.3035 89.0886 34.0002 87.4953 34.0002C85.9009 34.0002 84.3033 34.3037 82.7948 34.9162C81.2895 35.5257 79.8711 36.4496 78.6629 37.6606L59.9076 56.4156L53.3326 62.991L51.4761 64.8495C50.2658 66.0577 49.3419 67.4756 48.7287 68.9815C48.1198 70.4898 47.8164 72.0843 47.8164 73.6813C47.8164 75.2752 48.1198 76.8728 48.7287 78.3813C49.3419 79.8897 50.2626 81.3076 51.4761 82.5184L53.3326 84.3769L59.9076 77.8046L58.049 75.9455C57.7286 75.623 57.5027 75.2698 57.3458 74.8889C57.1909 74.5061 57.1113 74.0949 57.1134 73.6812C57.1113 73.2702 57.1909 72.8596 57.3458 72.4789C57.5027 72.0954 57.7286 71.7426 58.049 71.4223L59.9076 69.5638L66.4803 62.991L85.2388 44.2326C85.5581 43.9133 85.9113 43.6869 86.2922 43.5294C86.673 43.3756 87.0835 43.2981 87.4951 43.2981C87.9089 43.2981 88.3226 43.3776 88.7024 43.5294C89.0864 43.6869 89.4365 43.9133 89.7589 44.2326L100.759 55.2355L101.581 56.0569C101.9 56.3768 102.126 56.73 102.284 57.1131C102.438 57.4913 102.518 57.905 102.518 58.3186C102.518 58.7297 102.438 59.1435 102.284 59.5242C102.126 59.9046 101.9 60.2574 101.581 60.5777Z" fill="#6E9985"/>
</svg>
