<svg width="612" height="331" viewBox="0 0 612 331" fill="none" xmlns="http://www.w3.org/2000/svg">
<path d="M194.74 188.2C175.54 188.2 165.94 180.6 165.94 165.4V164.1H180.64V165.1C180.64 168.833 181.607 171.367 183.54 172.7C185.474 173.967 189.44 174.6 195.44 174.6C199.574 174.6 202.374 174.167 203.84 173.3C205.307 172.367 206.04 170.733 206.04 168.4C206.04 166 205.407 164.3 204.14 163.3C202.94 162.3 200.107 161.433 195.64 160.7L183.84 158.6C171.707 156.533 165.64 150.167 165.64 139.5C165.64 133.833 167.84 129.033 172.24 125.1C176.707 121.167 183.407 119.2 192.34 119.2C201.474 119.2 208.274 121.3 212.74 125.5C217.207 129.7 219.44 135.333 219.44 142.4V143.2H204.64V142.1C204.64 138.567 203.74 136.133 201.94 134.8C200.14 133.467 196.774 132.8 191.84 132.8C187.64 132.8 184.707 133.3 183.04 134.3C181.374 135.233 180.54 136.767 180.54 138.9C180.54 141.033 181.14 142.533 182.34 143.4C183.54 144.2 186.14 144.967 190.14 145.7L202.04 148C214.64 150.4 220.94 157.033 220.94 167.9C220.94 173.767 218.807 178.633 214.54 182.5C210.274 186.3 203.674 188.2 194.74 188.2ZM259.575 188.2C249.575 188.2 241.709 185.1 235.975 178.9C230.309 172.633 227.475 164.233 227.475 153.7C227.475 143.167 230.309 134.8 235.975 128.6C241.709 122.333 249.575 119.2 259.575 119.2C269.375 119.2 276.909 121.6 282.175 126.4C287.442 131.2 290.075 137.8 290.075 146.2V147.1H274.075V146.6C274.075 141.8 272.975 138.467 270.775 136.6C268.575 134.667 264.809 133.7 259.475 133.7C253.609 133.7 249.475 135.1 247.075 137.9C244.675 140.7 243.475 145.967 243.475 153.7C243.475 161.433 244.675 166.7 247.075 169.5C249.475 172.3 253.609 173.7 259.475 173.7C264.809 173.7 268.575 172.767 270.775 170.9C272.975 168.967 274.075 165.6 274.075 160.8V160.3H290.075V161.2C290.075 169.6 287.442 176.2 282.175 181C276.909 185.8 269.375 188.2 259.575 188.2ZM307.505 187.2H291.905L316.605 120.2H338.405L363.105 187.2H346.805L341.405 172.3H313.005L307.505 187.2ZM321.705 148.5L317.905 158.9H336.505L332.705 148.5L327.805 133.4H326.805L321.705 148.5ZM383.229 187.2H368.229V120.2H389.329L401.029 151.5L406.429 168.7H407.429L412.729 151.5L423.929 120.2H445.029V187.2H430.029V155.5L430.829 142.6H429.729L425.829 155.7L415.729 182.6H397.529L387.429 155.7L383.429 142.6H382.429L383.229 155.5V187.2Z" fill="url(#paint0_linear_682_7975)" fill-opacity="0.3"/>
<path d="M0.266667 157.2C0.266667 159.262 1.93814 160.933 4 160.933C6.06186 160.933 7.73333 159.262 7.73333 157.2C7.73333 155.138 6.06186 153.467 4 153.467C1.93814 153.467 0.266667 155.138 0.266667 157.2ZM308 330.2L308.603 329.844C269.264 263.191 233.221 219.954 186.91 193.337C140.6 166.72 84.1139 156.774 4.0024 156.5L4 157.2L3.9976 157.9C84.0177 158.174 140.214 168.113 186.213 194.551C232.211 220.988 268.102 263.977 307.397 330.556L308 330.2Z" fill="url(#paint1_linear_682_7975)" fill-opacity="0.5"/>
<path d="M611.733 157.2C611.733 159.262 610.062 160.933 608 160.933C605.938 160.933 604.267 159.262 604.267 157.2C604.267 155.138 605.938 153.467 608 153.467C610.062 153.467 611.733 155.138 611.733 157.2ZM308 330.2L307.395 329.848C346.216 263.195 381.785 219.958 427.488 193.339C473.192 166.72 528.939 156.774 607.998 156.5L608 157.2L608.002 157.9C529.037 158.174 473.583 168.113 428.193 194.549C382.802 220.985 347.383 263.973 308.605 330.552L308 330.2Z" fill="url(#paint2_linear_682_7975)" fill-opacity="0.5"/>
<path d="M85 0.466618C87.0619 0.466618 88.7333 2.13809 88.7333 4.19995C88.7333 6.26181 87.0619 7.93328 85 7.93328C82.9381 7.93328 81.2667 6.26181 81.2667 4.19995C81.2667 2.13809 82.9381 0.466618 85 0.466618ZM308 330.2L307.691 330.828C221.796 288.653 166.087 250.018 131.788 200.371C97.4771 150.708 84.6539 90.1236 84.3 4.20283L85 4.19995L85.7 4.19707C86.0534 89.9963 98.8614 150.249 132.94 199.575C167.029 248.917 222.466 287.422 308.309 329.572L308 330.2Z" fill="url(#paint3_linear_682_7975)" fill-opacity="0.5"/>
<path d="M531 0.466618C528.938 0.466618 527.267 2.13809 527.267 4.19995C527.267 6.26181 528.938 7.93328 531 7.93328C533.062 7.93328 534.733 6.26181 534.733 4.19995C534.733 2.13809 533.062 0.466618 531 0.466618ZM308 330.2L308.309 330.828C394.204 288.653 449.913 250.018 484.212 200.371C518.523 150.708 531.346 90.1236 531.7 4.20283L531 4.19995L530.3 4.19707C529.947 89.9963 517.139 150.249 483.06 199.575C448.971 248.917 393.534 287.422 307.691 329.572L308 330.2Z" fill="url(#paint4_linear_682_7975)" fill-opacity="0.5"/>
<defs>
<linearGradient id="paint0_linear_682_7975" x1="305.5" y1="34.2" x2="305.5" y2="203.7" gradientUnits="userSpaceOnUse">
<stop stop-color="#FF4141"/>
<stop offset="1" stop-color="#FF4141" stop-opacity="0"/>
</linearGradient>
<linearGradient id="paint1_linear_682_7975" x1="54.3311" y1="134.167" x2="273.943" y2="426.996" gradientUnits="userSpaceOnUse">
<stop stop-color="#8B919A"/>
<stop offset="1" stop-color="#8B919A" stop-opacity="0"/>
</linearGradient>
<linearGradient id="paint2_linear_682_7975" x1="558.331" y1="134.167" x2="337.921" y2="424.194" gradientUnits="userSpaceOnUse">
<stop stop-color="#8B919A"/>
<stop offset="1" stop-color="#8B919A" stop-opacity="0"/>
</linearGradient>
<linearGradient id="paint3_linear_682_7975" x1="55.3106" y1="58.1735" x2="380.668" y2="351.477" gradientUnits="userSpaceOnUse">
<stop stop-color="#8B919A"/>
<stop offset="1" stop-color="#8B919A" stop-opacity="0"/>
</linearGradient>
<linearGradient id="paint4_linear_682_7975" x1="560.689" y1="58.1735" x2="235.332" y2="351.477" gradientUnits="userSpaceOnUse">
<stop stop-color="#8B919A"/>
<stop offset="1" stop-color="#8B919A" stop-opacity="0"/>
</linearGradient>
</defs>
</svg>
