<svg width="42" height="43" viewBox="0 0 42 43" fill="none" xmlns="http://www.w3.org/2000/svg">
<mask id="mask0_682_7701" style="mask-type:alpha" maskUnits="userSpaceOnUse" x="0" y="0" width="42" height="43">
<rect y="0.600098" width="42" height="42" fill="#D9D9D9"/>
</mask>
<g mask="url(#mask0_682_7701)">
<path d="M16.0864 15.8115V13.1865H31.1636V15.8115H16.0864ZM16.0864 20.8598V18.2348H31.1636V20.8598H16.0864ZM20.8653 38.2251H10.5C9.27733 38.2251 8.2425 37.8016 7.3955 36.9546C6.5485 36.1076 6.125 35.0728 6.125 33.8501V28.8022H11.375V4.9751H35.875V19.7762C35.4261 19.7514 34.9813 19.7788 34.5406 19.8584C34.0996 19.938 33.6694 20.0699 33.25 20.2539V7.6001H14V28.8022H23.9277L21.3028 31.4268H8.75V33.8501C8.75 34.3459 8.91771 34.7616 9.25312 35.097C9.58854 35.4324 10.0042 35.6001 10.5 35.6001H20.8653V38.2251ZM24.7021 38.2251V33.6012L34.2024 24.1442C34.42 23.9266 34.6555 23.7735 34.909 23.6848C35.1625 23.5964 35.4161 23.5522 35.6698 23.5522C35.9411 23.5522 36.2063 23.6037 36.4656 23.7067C36.7246 23.8099 36.9574 23.9648 37.1639 24.1713L38.7826 25.8067C38.971 26.0245 39.1169 26.2602 39.2201 26.5137C39.3234 26.7671 39.375 27.0206 39.375 27.274C39.375 27.5275 39.3279 27.7855 39.2337 28.048C39.1395 28.3105 38.9891 28.5505 38.7826 28.7681L29.3261 38.2251H24.7021ZM26.7886 36.1387H28.4511L34.1316 30.4306L33.3274 29.5993L32.5128 28.7786L26.7886 34.4762V36.1387ZM33.3274 29.5993L32.5128 28.7786L34.1316 30.4306L33.3274 29.5993Z" fill="url(#paint0_linear_682_7701)"/>
</g>
<defs>
<linearGradient id="paint0_linear_682_7701" x1="22.75" y1="4.9751" x2="22.75" y2="38.2251" gradientUnits="userSpaceOnUse">
<stop stop-color="#9980C1"/>
<stop offset="1" stop-color="#9980C1" stop-opacity="0.3"/>
</linearGradient>
</defs>
</svg>
