<svg width="68" height="68" viewBox="0 0 68 68" fill="none" xmlns="http://www.w3.org/2000/svg">
<path d="M24.4374 19.125C24.4374 21.0163 24.9982 22.8651 26.049 24.4376C27.0997 26.0102 28.5932 27.2358 30.3405 27.9596C32.0878 28.6834 34.0105 28.8727 35.8654 28.5038C37.7204 28.1348 39.4243 27.224 40.7616 25.8867C42.0989 24.5494 43.0097 22.8455 43.3787 20.9906C43.7476 19.1356 43.5583 17.2129 42.8345 15.4656C42.1107 13.7183 40.8851 12.2248 39.3125 11.1741C37.74 10.1233 35.8912 9.5625 33.9999 9.5625C31.4638 9.5625 29.0315 10.57 27.2382 12.3633C25.4449 14.1566 24.4374 16.5889 24.4374 19.125ZM39.8224 16.7131L33.0649 23.4813C32.7644 23.7773 32.3605 23.945 31.9386 23.9488C31.7293 23.9491 31.522 23.908 31.3287 23.8278C31.1354 23.7475 30.9599 23.6298 30.8124 23.4813L28.1774 20.8463L30.4299 18.5938L31.9386 20.0919L37.5699 14.4606L39.8224 16.7131ZM57.3749 51L62.273 48.5988C62.4038 48.5387 62.521 48.4527 62.6175 48.346C62.7141 48.2393 62.788 48.1141 62.8347 47.978C62.8814 47.8418 62.8999 47.6977 62.8892 47.5541C62.8785 47.4106 62.8388 47.2708 62.7724 47.1431L55.813 33.065C55.753 32.9342 55.667 32.817 55.5603 32.7205C55.4536 32.6239 55.3283 32.5501 55.1922 32.5034C55.0561 32.4567 54.9119 32.4381 54.7684 32.4488C54.6249 32.4595 54.4851 32.4993 54.3574 32.5656L49.4699 34.9775C49.3405 35.0376 49.2245 35.1232 49.1289 35.2291C49.0333 35.335 48.96 35.4591 48.9134 35.594C48.8668 35.7288 48.8479 35.8717 48.8577 36.014C48.8675 36.1564 48.9059 36.2953 48.9705 36.4225L55.9193 50.5325C55.9822 50.6605 56.0703 50.7746 56.1783 50.8678C56.2863 50.9611 56.412 51.0316 56.5478 51.0753C56.6837 51.1189 56.8269 51.1347 56.969 51.1218C57.1111 51.1089 57.2491 51.0674 57.3749 51ZM58.8836 45.4006L59.808 47.2919L58.0124 48.1738L57.0774 46.2825L58.8836 45.4006ZM53.858 50.0331L48.1418 38.4094C46.6011 38.8875 43.6261 38.9619 38.1436 36.7306C30.0155 33.4263 25.0961 41.5225 23.7255 45.3156C23.6267 45.566 23.6265 45.8446 23.7251 46.095C23.8237 46.3455 24.0138 46.5492 24.2568 46.665C25.8824 47.3981 29.633 46.6012 32.0874 42.2556L41.4374 48.11C42.6247 47.5248 43.5903 46.5704 44.1893 45.39L45.698 45.9956C45.1017 47.2564 44.1628 48.3241 42.9886 49.0769L50.1818 53.5819C51.0877 52.1074 52.3525 50.8865 53.858 50.0331ZM27.8905 64.9081C28.3404 65.2152 28.8936 65.3317 29.4292 65.2322C29.9647 65.1326 30.4391 64.8251 30.7486 64.3769L31.333 63.5269C31.6416 63.0774 31.759 62.5238 31.6593 61.9878C31.5597 61.4518 31.2512 60.9773 30.8018 60.6687C30.3523 60.3602 29.7987 60.2428 29.2627 60.3424C28.7267 60.4421 28.2522 60.7505 27.9436 61.2L28.528 60.3606C28.8366 59.9126 28.9545 59.3603 28.8559 58.8253C28.7572 58.2903 28.4501 57.8164 28.0021 57.5078C27.554 57.1992 27.0018 57.0813 26.4667 57.1799C25.9317 57.2786 25.4578 57.5857 25.1493 58.0337C25.4271 57.584 25.5214 57.0446 25.4128 56.5272C25.3043 56.0098 25.001 55.5539 24.5658 55.2537C24.1306 54.9536 23.5967 54.8321 23.0744 54.9145C22.5522 54.9969 22.0816 55.2767 21.7599 55.6962L21.1755 56.5462C21.3304 56.3244 21.4401 56.0742 21.4982 55.81C21.5564 55.5457 21.562 55.2726 21.5147 55.0062C21.4673 54.7399 21.3679 54.4854 21.2222 54.2574C21.0765 54.0294 20.8874 53.8324 20.6655 53.6775C20.4437 53.5226 20.1935 53.413 19.9292 53.3548C19.665 53.2966 19.3919 53.291 19.1255 53.3384C18.8591 53.3857 18.6047 53.4851 18.3767 53.6308C18.1487 53.7765 17.9516 53.9656 17.7968 54.1875L16.628 55.8769C16.4752 56.0994 16.3678 56.3499 16.3118 56.614C16.2558 56.878 16.2524 57.1506 16.3017 57.416C16.351 57.6814 16.4522 57.9344 16.5993 58.1608C16.7464 58.3871 16.9367 58.5822 17.1593 58.735C17.3818 58.8878 17.6323 58.9952 17.8964 59.0512C18.1604 59.1072 18.433 59.1106 18.6984 59.0613C18.9638 59.012 19.2168 58.9109 19.4432 58.7637C19.6695 58.6166 19.8646 58.4263 20.0174 58.2038C19.7046 58.649 19.5815 59.2002 19.6751 59.7362C19.7688 60.2722 20.0715 60.7491 20.5168 61.0619C20.962 61.3747 21.5132 61.4978 22.0493 61.4041C22.5853 61.3105 23.0621 61.0077 23.3749 60.5625L23.9593 59.7231C23.6507 60.1726 23.5333 60.7262 23.633 61.2622C23.7326 61.7982 24.0411 62.2727 24.4905 62.5813C24.94 62.8898 25.4936 63.0072 26.0296 62.9076C26.5656 62.8079 27.0401 62.4995 27.3486 62.05C27.0426 62.5012 26.9278 63.0553 27.0294 63.591C27.1309 64.1266 27.4406 64.6002 27.8905 64.9081ZM6.03489 49.7887L10.6249 52.3919C10.747 52.4655 10.8827 52.5138 11.0239 52.5339C11.1651 52.5539 11.3089 52.5454 11.4467 52.5087C11.5846 52.472 11.7136 52.4079 11.8261 52.3203C11.9386 52.2327 12.0324 52.1234 12.1018 51.9987L19.9643 38.3881C20.0396 38.2656 20.0893 38.129 20.1103 37.9867C20.1313 37.8443 20.1231 37.6992 20.0864 37.5602C20.0496 37.4211 19.985 37.2909 19.8964 37.1775C19.8079 37.0642 19.6972 36.9699 19.5711 36.9006L14.9811 34.2869C14.8584 34.2137 14.7221 34.166 14.5804 34.1467C14.4388 34.1274 14.2947 34.1369 14.1568 34.1746C14.0189 34.2123 13.8901 34.2774 13.7779 34.3661C13.6658 34.4547 13.5727 34.5651 13.5043 34.6906L5.64176 48.3013C5.56642 48.4238 5.51674 48.5604 5.49575 48.7027C5.47475 48.845 5.48288 48.9901 5.51964 49.1292C5.5564 49.2683 5.62103 49.3985 5.70959 49.5119C5.79816 49.6252 5.90883 49.7194 6.03489 49.7887Z" fill="#9980C1"/>
<path d="M50.3838 58.0337C50.5786 57.7136 50.6816 57.346 50.6813 56.9712C50.6679 56.6246 50.5699 56.2865 50.3958 55.9865C50.2217 55.6864 49.9768 55.4336 49.6825 55.25L32.5763 44.4869C29.6438 48.4287 25.6169 49.0662 23.5875 48.1419C22.9757 47.8539 22.4938 47.3476 22.2362 46.7225C21.9787 46.0973 21.9642 45.3984 22.1956 44.7631C22.6696 43.4889 23.275 42.2676 24.0019 41.1187C22.9775 40.7363 22.009 40.2182 21.1225 39.5781L13.685 52.4025L15.9375 54.0494L16.4581 53.295C17.0106 52.4921 17.8593 51.9415 18.8177 51.7642C19.776 51.5869 20.7655 51.7974 21.5688 52.3494C21.9457 52.6041 22.2703 52.9287 22.525 53.3056L22.78 53.2525C23.2562 53.1606 23.7459 53.165 24.2203 53.2654C24.6948 53.3657 25.1443 53.56 25.5425 53.8369C26.147 54.2469 26.6107 54.833 26.8706 55.5156C27.6044 55.5164 28.3203 55.7427 28.9213 56.1637C29.3198 56.436 29.6602 56.7847 29.9229 57.1896C30.1855 57.5945 30.3651 58.0476 30.4513 58.5225C30.4564 58.611 30.4564 58.6996 30.4513 58.7881C31.0097 58.9228 31.5288 59.1864 31.967 59.5579C32.4051 59.9294 32.7501 60.3985 32.9743 60.9274C33.1985 61.4563 33.2956 62.0304 33.2578 62.6036C33.2201 63.1768 33.0485 63.7332 32.7569 64.2281L35.0625 65.5775C35.5275 65.8591 36.0853 65.9445 36.6133 65.815C37.1413 65.6855 37.5962 65.3517 37.8781 64.8869C38.0691 64.5651 38.1717 64.1985 38.1756 63.8244C38.1727 63.4739 38.0804 63.1299 37.9075 62.825C37.7346 62.5201 37.4868 62.2643 37.1875 62.0819L38.9194 63.1444C39.1503 63.2839 39.4064 63.3766 39.6732 63.4171C39.9399 63.4576 40.212 63.4453 40.474 63.3806C40.7359 63.316 40.9826 63.2004 41.1999 63.0405C41.4171 62.8805 41.6008 62.6793 41.7403 62.4484C41.8798 62.2175 41.9725 61.9614 42.0131 61.6946C42.0536 61.4279 42.0412 61.1558 41.9766 60.8938C41.912 60.6319 41.7964 60.3852 41.6364 60.1679C41.4765 59.9507 41.2753 59.767 41.0444 59.6275L42.8081 60.69C43.0391 60.8295 43.2952 60.9222 43.5619 60.9627C43.8287 61.0033 44.1008 60.9909 44.3627 60.9263C44.6247 60.8616 44.8713 60.746 45.0886 60.5861C45.3059 60.4261 45.4895 60.225 45.6291 59.994C45.7686 59.7631 45.8613 59.507 45.9018 59.2402C45.9424 58.9735 45.93 58.7014 45.8653 58.4394C45.8007 58.1775 45.6851 57.9308 45.5252 57.7136C45.3652 57.4963 45.1641 57.3126 44.9331 57.1731L47.5575 58.7562C47.7901 58.896 48.0481 58.9882 48.3166 59.0275C48.585 59.0668 48.8586 59.0524 49.1215 58.9852C49.3844 58.918 49.6313 58.7993 49.848 58.636C50.0647 58.4727 50.2468 58.268 50.3838 58.0337ZM55.25 28.6875V10.625C55.2508 10.4852 55.224 10.3465 55.1711 10.2171C55.1183 10.0876 55.0404 9.96989 54.9419 9.87061L47.5044 2.43311C47.4051 2.33464 47.2874 2.25673 47.1579 2.20386C47.0285 2.15098 46.8898 2.12418 46.75 2.12499H14.875C14.3114 2.12499 13.7709 2.34887 13.3724 2.74739C12.9739 3.1459 12.75 3.6864 12.75 4.24999V29.75H14.875V4.24999H45.6875V9.56249C45.6875 10.1261 45.9114 10.6666 46.3099 11.0651C46.7084 11.4636 47.2489 11.6875 47.8125 11.6875H53.125V28.6875H55.25Z" fill="#9980C1"/>
</svg>
